solid Spindle tray
facet normal -1.0 0.0 0.0
  outer loop
    vertex 0.0 125.0 9.999999999999982
    vertex 0.0 0.0 0.0
    vertex 0.0 0.0 9.999999999999982
  endloop
endfacet
facet normal -1.0 0.0 0.0
  outer loop
    vertex 0.0 0.0 0.0
    vertex 0.0 125.0 9.999999999999982
    vertex 0.0 125.0 0.0
  endloop
endfacet
facet normal 0.0 -1.0 0.0
  outer loop
    vertex 39.999154248796714 0.0 9.999999999999982
    vertex 0.0 0.0 0.0
    vertex 39.999154248796714 0.0 0.0
  endloop
endfacet
facet normal 0.0 -1.0 0.0
  outer loop
    vertex 0.0 0.0 0.0
    vertex 39.999154248796714 0.0 9.999999999999982
    vertex 0.0 0.0 9.999999999999982
  endloop
endfacet
facet normal -0.9911940516605177 0.13241734007601622 0.0
  outer loop
    vertex 110.91751839936472 47.57696125759505 4.999999999999991
    vertex 110.29396179418288 42.909403386586135 0.0
    vertex 110.29396179418288 42.909403386586135 4.999999999999991
  endloop
endfacet
facet normal -0.9911940516605177 0.13241734007601622 0.0
  outer loop
    vertex 110.29396179418288 42.909403386586135 0.0
    vertex 110.91751839936472 47.57696125759505 4.999999999999991
    vertex 110.91751839936472 47.57696125759505 0.0
  endloop
endfacet
facet normal -0.9999981803271373 0.0019077060607366218 0.0
  outer loop
    vertex 110.92650183547842 52.28597799327978 4.999999999999991
    vertex 110.91751839936472 47.57696125759505 0.0
    vertex 110.91751839936472 47.57696125759505 4.999999999999991
  endloop
endfacet
facet normal -0.9999981803271373 0.0019077060607366218 0.0
  outer loop
    vertex 110.91751839936472 47.57696125759505 0.0
    vertex 110.92650183547842 52.28597799327978 4.999999999999991
    vertex 110.92650183547842 52.28597799327978 0.0
  endloop
endfacet
facet normal -0.9916920628764856 -0.12863456933414327 0.0
  outer loop
    vertex 110.32075839344144 56.955881011706666 4.999999999999991
    vertex 110.92650183547842 52.28597799327978 0.0
    vertex 110.92650183547842 52.28597799327978 4.999999999999991
  endloop
endfacet
facet normal -0.9916920628764856 -0.12863456933414327 0.0
  outer loop
    vertex 110.92650183547842 52.28597799327978 0.0
    vertex 110.32075839344144 56.955881011706666 4.999999999999991
    vertex 110.32075839344144 56.955881011706666 0.0
  endloop
endfacet
facet normal -0.9664178192810325 -0.25697587158348895 0.0
  outer loop
    vertex 109.11065251149078 61.50676697748869 4.999999999999991
    vertex 110.32075839344144 56.955881011706666 0.0
    vertex 110.32075839344144 56.955881011706666 4.999999999999991
  endloop
endfacet
facet normal -0.9664178192810325 -0.25697587158348895 0.0
  outer loop
    vertex 110.32075839344144 56.955881011706666 0.0
    vertex 109.11065251149078 61.50676697748869 4.999999999999991
    vertex 109.11065251149078 61.50676697748869 0.0
  endloop
endfacet
facet normal -0.9246078988560411 -0.3809202454228669 0.0
  outer loop
    vertex 107.31688943677136 65.86076897000737 4.999999999999991
    vertex 109.11065251149078 61.50676697748869 0.0
    vertex 109.11065251149078 61.50676697748869 4.999999999999991
  endloop
endfacet
facet normal -0.9246078988560411 -0.3809202454228669 0.0
  outer loop
    vertex 109.11065251149078 61.50676697748869 0.0
    vertex 107.31688943677136 65.86076897000737 4.999999999999991
    vertex 107.31688943677136 65.86076897000737 0.0
  endloop
endfacet
facet normal -0.9654303179590793 0.2606612766895597 0.0
  outer loop
    vertex 110.29396179418288 42.909403386586135 4.999999999999991
    vertex 109.99915424879676 41.81750302496155 0.0
    vertex 109.99915424879676 41.81750302496155 4.999999999999991
  endloop
endfacet
facet normal -0.9654303179590793 0.2606612766895597 0.0
  outer loop
    vertex 109.99915424879676 41.81750302496155 0.0
    vertex 110.29396179418288 42.909403386586135 4.999999999999991
    vertex 110.29396179418288 42.909403386586135 0.0
  endloop
endfacet
facet normal -0.5016512120751218 -0.8650699748711438 0.0
  outer loop
    vertex 95.05674942935735 79.89469644556964 4.999999999999991
    vertex 90.98311302746514 82.25698469729974 0.0
    vertex 95.05674942935735 79.89469644556964 0.0
  endloop
endfacet
facet normal -0.5016512120751218 -0.8650699748711438 0.0
  outer loop
    vertex 90.98311302746514 82.25698469729974 0.0
    vertex 95.05674942935735 79.89469644556964 4.999999999999991
    vertex 90.98311302746514 82.25698469729974 4.999999999999991
  endloop
endfacet
facet normal -0.13241734007601558 -0.9911940516605177 0.0
  outer loop
    vertex 82.08975086221066 85.29480754538612 4.999999999999991
    vertex 77.42219299120173 85.91836415056797 0.0
    vertex 82.08975086221066 85.29480754538612 0.0
  endloop
endfacet
facet normal -0.13241734007601558 -0.9911940516605177 0.0
  outer loop
    vertex 77.42219299120173 85.91836415056797 0.0
    vertex 82.08975086221066 85.29480754538612 4.999999999999991
    vertex 77.42219299120173 85.91836415056797 4.999999999999991
  endloop
endfacet
facet normal 0.38092024542286274 -0.9246078988560427 0.0
  outer loop
    vertex 63.49238727130809 84.11149826269407 4.999999999999991
    vertex 59.13838527878941 82.31773518797468 0.0
    vertex 63.49238727130809 84.11149826269407 0.0
  endloop
endfacet
facet normal 0.38092024542286274 -0.9246078988560427 0.0
  outer loop
    vertex 59.13838527878941 82.31773518797468 0.0
    vertex 63.49238727130809 84.11149826269407 4.999999999999991
    vertex 59.13838527878941 82.31773518797468 4.999999999999991
  endloop
endfacet
facet normal 0.8650699748711405 -0.5016512120751274 -0.0
  outer loop
    vertex 45.10445780322717 70.05759518056071 0.0
    vertex 42.742169551497035 65.98395877866852 4.999999999999991
    vertex 42.742169551497035 65.98395877866852 0.0
  endloop
endfacet
facet normal 0.8650699748711405 -0.5016512120751274 -0.0
  outer loop
    vertex 42.742169551497035 65.98395877866852 4.999999999999991
    vertex 45.10445780322717 70.05759518056071 0.0
    vertex 45.10445780322717 70.05759518056071 4.999999999999991
  endloop
endfacet
facet normal 0.923147803849503 -0.38444522659000396 -0.0
  outer loop
    vertex 42.742169551497035 65.98395877866852 0.0
    vertex 40.93180725126344 61.63683241048272 4.999999999999991
    vertex 40.93180725126344 61.63683241048272 0.0
  endloop
endfacet
facet normal 0.923147803849503 -0.38444522659000396 -0.0
  outer loop
    vertex 40.93180725126344 61.63683241048272 4.999999999999991
    vertex 42.742169551497035 65.98395877866852 0.0
    vertex 42.742169551497035 65.98395877866852 4.999999999999991
  endloop
endfacet
facet normal 0.991194051660517 -0.1324173400760203 -0.0
  outer loop
    vertex 39.704346703410664 57.09059661341409 0.0
    vertex 39.08079009822879 52.423038742405154 4.999999999999991
    vertex 39.08079009822879 52.423038742405154 0.0
  endloop
endfacet
facet normal 0.991194051660517 -0.1324173400760203 -0.0
  outer loop
    vertex 39.08079009822879 52.423038742405154 4.999999999999991
    vertex 39.704346703410664 57.09059661341409 0.0
    vertex 39.704346703410664 57.09059661341409 4.999999999999991
  endloop
endfacet
facet normal 0.9999981803271373 -0.001907706060746203 -0.0
  outer loop
    vertex 39.08079009822879 52.423038742405154 0.0
    vertex 39.07180666211505 47.71402200672042 4.999999999999991
    vertex 39.07180666211505 47.71402200672042 0.0
  endloop
endfacet
facet normal 0.9999981803271373 -0.001907706060746203 -0.0
  outer loop
    vertex 39.07180666211505 47.71402200672042 4.999999999999991
    vertex 39.08079009822879 52.423038742405154 0.0
    vertex 39.08079009822879 52.423038742405154 4.999999999999991
  endloop
endfacet
facet normal 0.9916920628764856 0.12863456933414327 -0.0
  outer loop
    vertex 39.07180666211505 47.71402200672042 0.0
    vertex 39.67755010415204 43.04411898829353 4.999999999999991
    vertex 39.67755010415204 43.04411898829353 0.0
  endloop
endfacet
facet normal 0.9916920628764856 0.12863456933414327 -0.0
  outer loop
    vertex 39.67755010415204 43.04411898829353 4.999999999999991
    vertex 39.07180666211505 47.71402200672042 0.0
    vertex 39.07180666211505 47.71402200672042 4.999999999999991
  endloop
endfacet
facet normal -0.001907706060746203 -0.9999981803271373 0.0
  outer loop
    vertex 77.42219299120173 85.91836415056797 4.999999999999991
    vertex 72.713176255517 85.9273475866817 0.0
    vertex 77.42219299120173 85.91836415056797 0.0
  endloop
endfacet
facet normal -0.001907706060746203 -0.9999981803271373 0.0
  outer loop
    vertex 72.713176255517 85.9273475866817 0.0
    vertex 77.42219299120173 85.91836415056797 4.999999999999991
    vertex 72.713176255517 85.9273475866817 4.999999999999991
  endloop
endfacet
facet normal -0.7084544463755841 -0.7057565425914695 0.0
  outer loop
    vertex 98.78719481669414 77.02090164928009 4.999999999999991
    vertex 102.11062023462345 73.6847717341621 0.0
    vertex 102.11062023462345 73.6847717341621 4.999999999999991
  endloop
endfacet
facet normal -0.7084544463755841 -0.7057565425914695 0.0
  outer loop
    vertex 102.11062023462345 73.6847717341621 0.0
    vertex 98.78719481669414 77.02090164928009 4.999999999999991
    vertex 98.78719481669414 77.02090164928009 0.0
  endloop
endfacet
facet normal -0.26066127668956923 -0.9654303179590766 0.0
  outer loop
    vertex 86.63598665927931 84.06734699753333 4.999999999999991
    vertex 82.08975086221066 85.29480754538612 0.0
    vertex 86.63598665927931 84.06734699753333 0.0
  endloop
endfacet
facet normal -0.26066127668956923 -0.9654303179590766 0.0
  outer loop
    vertex 82.08975086221066 85.29480754538612 0.0
    vertex 86.63598665927931 84.06734699753333 4.999999999999991
    vertex 82.08975086221066 85.29480754538612 4.999999999999991
  endloop
endfacet
facet normal 0.9654303179590764 -0.2606612766895705 -0.0
  outer loop
    vertex 40.93180725126344 61.63683241048272 0.0
    vertex 39.704346703410664 57.09059661341409 4.999999999999991
    vertex 39.704346703410664 57.09059661341409 0.0
  endloop
endfacet
facet normal 0.9654303179590764 -0.2606612766895705 -0.0
  outer loop
    vertex 39.704346703410664 57.09059661341409 4.999999999999991
    vertex 40.93180725126344 61.63683241048272 0.0
    vertex 40.93180725126344 61.63683241048272 4.999999999999991
  endloop
endfacet
facet normal 0.2569758715834845 -0.9664178192810335 0.0
  outer loop
    vertex 68.0432732370901 85.3216041446447 4.999999999999991
    vertex 63.49238727130809 84.11149826269407 0.0
    vertex 68.0432732370901 85.3216041446447 0.0
  endloop
endfacet
facet normal 0.2569758715834845 -0.9664178192810335 0.0
  outer loop
    vertex 63.49238727130809 84.11149826269407 0.0
    vertex 68.0432732370901 85.3216041446447 4.999999999999991
    vertex 63.49238727130809 84.11149826269407 4.999999999999991
  endloop
endfacet
facet normal 0.9664178192810333 0.25697587158348556 -0.0
  outer loop
    vertex 39.67755010415204 43.04411898829353 0.0
    vertex 39.997891434147746 41.839400554409515 4.999999999999991
    vertex 39.997891434147746 41.839400554409515 0.0
  endloop
endfacet
facet normal 0.9664178192810333 0.25697587158348556 -0.0
  outer loop
    vertex 39.997891434147746 41.839400554409515 4.999999999999991
    vertex 39.67755010415204 43.04411898829353 0.0
    vertex 39.67755010415204 43.04411898829353 4.999999999999991
  endloop
endfacet
facet normal 0.128634569334148 -0.9916920628764851 0.0
  outer loop
    vertex 72.713176255517 85.9273475866817 4.999999999999991
    vertex 68.0432732370901 85.3216041446447 0.0
    vertex 72.713176255517 85.9273475866817 0.0
  endloop
endfacet
facet normal 0.128634569334148 -0.9916920628764851 0.0
  outer loop
    vertex 68.0432732370901 85.3216041446447 0.0
    vertex 72.713176255517 85.9273475866817 4.999999999999991
    vertex 68.0432732370901 85.3216041446447 4.999999999999991
  endloop
endfacet
facet normal 0.7057565425914654 -0.7084544463755882 0.0
  outer loop
    vertex 51.31438251463468 77.11146598582675 4.999999999999991
    vertex 47.978252599516715 73.78804056789753 0.0
    vertex 51.31438251463468 77.11146598582675 0.0
  endloop
endfacet
facet normal 0.7057565425914654 -0.7084544463755882 0.0
  outer loop
    vertex 47.978252599516715 73.78804056789753 0.0
    vertex 51.31438251463468 77.11146598582675 4.999999999999991
    vertex 47.978252599516715 73.78804056789753 4.999999999999991
  endloop
endfacet
facet normal 0.7921905587800232 -0.6102738062376549 -0.0
  outer loop
    vertex 47.978252599516715 73.78804056789753 0.0
    vertex 45.10445780322717 70.05759518056071 4.999999999999991
    vertex 45.10445780322717 70.05759518056071 0.0
  endloop
endfacet
facet normal 0.7921905587800232 -0.6102738062376549 -0.0
  outer loop
    vertex 45.10445780322717 70.05759518056071 4.999999999999991
    vertex 47.978252599516715 73.78804056789753 0.0
    vertex 47.978252599516715 73.78804056789753 4.999999999999991
  endloop
endfacet
facet normal -0.7945132345153538 -0.6072468362864897 0.0
  outer loop
    vertex 102.11062023462345 73.6847717341621 4.999999999999991
    vertex 104.97016095281678 69.9433888080133 0.0
    vertex 104.97016095281678 69.9433888080133 4.999999999999991
  endloop
endfacet
facet normal -0.7945132345153538 -0.6072468362864897 0.0
  outer loop
    vertex 104.97016095281678 69.9433888080133 0.0
    vertex 102.11062023462345 73.6847717341621 4.999999999999991
    vertex 102.11062023462345 73.6847717341621 0.0
  endloop
endfacet
facet normal -0.6102738062376573 -0.7921905587800213 0.0
  outer loop
    vertex 98.78719481669414 77.02090164928009 4.999999999999991
    vertex 95.05674942935735 79.89469644556964 0.0
    vertex 98.78719481669414 77.02090164928009 0.0
  endloop
endfacet
facet normal -0.6102738062376573 -0.7921905587800213 0.0
  outer loop
    vertex 95.05674942935735 79.89469644556964 0.0
    vertex 98.78719481669414 77.02090164928009 4.999999999999991
    vertex 95.05674942935735 79.89469644556964 4.999999999999991
  endloop
endfacet
facet normal 0.6072468362864842 -0.7945132345153578 0.0
  outer loop
    vertex 55.0557654407835 79.97100670402007 4.999999999999991
    vertex 51.31438251463468 77.11146598582675 0.0
    vertex 55.0557654407835 79.97100670402007 0.0
  endloop
endfacet
facet normal 0.6072468362864842 -0.7945132345153578 0.0
  outer loop
    vertex 51.31438251463468 77.11146598582675 0.0
    vertex 55.0557654407835 79.97100670402007 4.999999999999991
    vertex 51.31438251463468 77.11146598582675 4.999999999999991
  endloop
endfacet
facet normal -0.3844452265900023 -0.9231478038495038 0.0
  outer loop
    vertex 90.98311302746514 82.25698469729974 4.999999999999991
    vertex 86.63598665927931 84.06734699753333 0.0
    vertex 90.98311302746514 82.25698469729974 0.0
  endloop
endfacet
facet normal -0.3844452265900023 -0.9231478038495038 0.0
  outer loop
    vertex 86.63598665927931 84.06734699753333 0.0
    vertex 90.98311302746514 82.25698469729974 4.999999999999991
    vertex 86.63598665927931 84.06734699753333 4.999999999999991
  endloop
endfacet
facet normal 0.49834696825201114 -0.866977680931885 0.0
  outer loop
    vertex 59.13838527878941 82.31773518797468 4.999999999999991
    vertex 55.0557654407835 79.97100670402007 0.0
    vertex 59.13838527878941 82.31773518797468 0.0
  endloop
endfacet
facet normal 0.49834696825201114 -0.866977680931885 0.0
  outer loop
    vertex 55.0557654407835 79.97100670402007 0.0
    vertex 59.13838527878941 82.31773518797468 4.999999999999991
    vertex 55.0557654407835 79.97100670402007 4.999999999999991
  endloop
endfacet
facet normal -0.8669776809318881 -0.4983469682520055 0.0
  outer loop
    vertex 104.97016095281678 69.9433888080133 4.999999999999991
    vertex 107.31688943677136 65.86076897000737 0.0
    vertex 107.31688943677136 65.86076897000737 4.999999999999991
  endloop
endfacet
facet normal -0.8669776809318881 -0.4983469682520055 0.0
  outer loop
    vertex 107.31688943677136 65.86076897000737 0.0
    vertex 104.97016095281678 69.9433888080133 4.999999999999991
    vertex 104.97016095281678 69.9433888080133 0.0
  endloop
endfacet
facet normal 0.9548433133681208 0.2971098229883836 -0.0
  outer loop
    vertex 38.540498023013676 41.22410197129822 4.999999999999991
    vertex 39.997891434147746 36.54037142489172 9.999999999999982
    vertex 39.997891434147746 36.54037142489172 4.999999999999991
  endloop
endfacet
facet normal 0.9548433133681208 0.2971098229883836 -0.0
  outer loop
    vertex 39.997891434147746 36.54037142489172 9.999999999999982
    vertex 38.540498023013676 41.22410197129822 4.999999999999991
    vertex 38.540498023013676 41.22410197129822 9.999999999999982
  endloop
endfacet
facet normal 0.9854551103218134 0.16993594540479845 -0.0
  outer loop
    vertex 37.70692232815193 46.05799056611441 4.999999999999991
    vertex 38.540498023013676 41.22410197129822 9.999999999999982
    vertex 38.540498023013676 41.22410197129822 4.999999999999991
  endloop
endfacet
facet normal 0.9854551103218134 0.16993594540479845 -0.0
  outer loop
    vertex 38.540498023013676 41.22410197129822 9.999999999999982
    vertex 37.70692232815193 46.05799056611441 4.999999999999991
    vertex 37.70692232815193 46.05799056611441 9.999999999999982
  endloop
endfacet
facet normal 0.9992054971181263 0.0398544166801894 -0.0
  outer loop
    vertex 37.51142706081245 50.959328035275874 4.999999999999991
    vertex 37.70692232815193 46.05799056611441 9.999999999999982
    vertex 37.70692232815193 46.05799056611441 4.999999999999991
  endloop
endfacet
facet normal 0.9992054971181263 0.0398544166801894 -0.0
  outer loop
    vertex 37.70692232815193 46.05799056611441 9.999999999999982
    vertex 37.51142706081245 50.959328035275874 4.999999999999991
    vertex 37.51142706081245 50.959328035275874 9.999999999999982
  endloop
endfacet
facet normal 0.9958592008266468 -0.09090903216354602 -0.0
  outer loop
    vertex 37.95735719922092 55.84425113577778 4.999999999999991
    vertex 37.51142706081245 50.959328035275874 9.999999999999982
    vertex 37.51142706081245 50.959328035275874 4.999999999999991
  endloop
endfacet
facet normal 0.9958592008266468 -0.09090903216354602 -0.0
  outer loop
    vertex 37.51142706081245 50.959328035275874 9.999999999999982
    vertex 37.95735719922092 55.84425113577778 4.999999999999991
    vertex 37.95735719922092 55.84425113577778 9.999999999999982
  endloop
endfacet
facet normal 0.9754734775046896 -0.22011700226222367 -0.0
  outer loop
    vertex 39.03708275507402 60.629177479014004 4.999999999999991
    vertex 37.95735719922092 55.84425113577778 9.999999999999982
    vertex 37.95735719922092 55.84425113577778 4.999999999999991
  endloop
endfacet
facet normal 0.9754734775046896 -0.22011700226222367 -0.0
  outer loop
    vertex 37.95735719922092 55.84425113577778 9.999999999999982
    vertex 39.03708275507402 60.629177479014004 4.999999999999991
    vertex 39.03708275507402 60.629177479014004 9.999999999999982
  endloop
endfacet
facet normal 0.9383971325302873 -0.34555870942422323 -0.0
  outer loop
    vertex 40.73212932475456 65.23223564861955 4.999999999999991
    vertex 39.03708275507402 60.629177479014004 9.999999999999982
    vertex 39.03708275507402 60.629177479014004 4.999999999999991
  endloop
endfacet
facet normal 0.9383971325302873 -0.34555870942422323 -0.0
  outer loop
    vertex 39.03708275507402 60.629177479014004 9.999999999999982
    vertex 40.73212932475456 65.23223564861955 4.999999999999991
    vertex 40.73212932475456 65.23223564861955 9.999999999999982
  endloop
endfacet
facet normal 0.8852645524454503 -0.46508781126100984 -0.0
  outer loop
    vertex 43.013494191499674 69.57466604310363 4.999999999999991
    vertex 40.73212932475456 65.23223564861955 9.999999999999982
    vertex 40.73212932475456 65.23223564861955 4.999999999999991
  endloop
endfacet
facet normal 0.8852645524454503 -0.46508781126100984 -0.0
  outer loop
    vertex 40.73212932475456 65.23223564861955 9.999999999999982
    vertex 43.013494191499674 69.57466604310363 4.999999999999991
    vertex 43.013494191499674 69.57466604310363 9.999999999999982
  endloop
endfacet
facet normal 0.8169848504265709 -0.5766591317004124 -0.0
  outer loop
    vertex 45.84214256992548 73.58216847446748 4.999999999999991
    vertex 43.013494191499674 69.57466604310363 9.999999999999982
    vertex 43.013494191499674 69.57466604310363 4.999999999999991
  endloop
endfacet
facet normal 0.8169848504265709 -0.5766591317004124 -0.0
  outer loop
    vertex 43.013494191499674 69.57466604310363 9.999999999999982
    vertex 45.84214256992548 73.58216847446748 4.999999999999991
    vertex 45.84214256992548 73.58216847446748 9.999999999999982
  endloop
endfacet
facet normal 0.7347263111059023 -0.6783636545163022 -0.0
  outer loop
    vertex 49.1696755020276 77.18617346502089 4.999999999999991
    vertex 45.84214256992548 73.58216847446748 9.999999999999982
    vertex 45.84214256992548 73.58216847446748 4.999999999999991
  endloop
endfacet
facet normal 0.7347263111059023 -0.6783636545163022 -0.0
  outer loop
    vertex 45.84214256992548 73.58216847446748 9.999999999999982
    vertex 49.1696755020276 77.18617346502089 4.999999999999991
    vertex 49.1696755020276 77.18617346502089 9.999999999999982
  endloop
endfacet
facet normal 0.6398964008975904 -0.7684611871254855 0.0
  outer loop
    vertex 52.939157976771384 80.32501549015652 9.999999999999982
    vertex 49.1696755020276 77.18617346502089 4.999999999999991
    vertex 52.939157976771384 80.32501549015652 4.999999999999991
  endloop
endfacet
facet normal 0.6398964008975904 -0.7684611871254855 0.0
  outer loop
    vertex 49.1696755020276 77.18617346502089 4.999999999999991
    vertex 52.939157976771384 80.32501549015652 9.999999999999982
    vertex 49.1696755020276 77.18617346502089 9.999999999999982
  endloop
endfacet
facet normal 0.5341176858571169 -0.8454101357652618 0.0
  outer loop
    vertex 57.086093103916006 82.94498809257287 9.999999999999982
    vertex 52.939157976771384 80.32501549015652 4.999999999999991
    vertex 57.086093103916006 82.94498809257287 4.999999999999991
  endloop
endfacet
facet normal 0.5341176858571169 -0.8454101357652618 0.0
  outer loop
    vertex 52.939157976771384 80.32501549015652 4.999999999999991
    vertex 57.086093103916006 82.94498809257287 9.999999999999982
    vertex 52.939157976771384 80.32501549015652 9.999999999999982
  endloop
endfacet
facet normal 0.4192000691262391 -0.9078938825901166 0.0
  outer loop
    vertex 61.539525673688324 85.001262814649 9.999999999999982
    vertex 57.086093103916006 82.94498809257287 4.999999999999991
    vertex 61.539525673688324 85.001262814649 4.999999999999991
  endloop
endfacet
facet normal 0.4192000691262391 -0.9078938825901166 0.0
  outer loop
    vertex 57.086093103916006 82.94498809257287 4.999999999999991
    vertex 61.539525673688324 85.001262814649 9.999999999999982
    vertex 57.086093103916006 82.94498809257287 9.999999999999982
  endloop
endfacet
facet normal 0.29710982298838423 -0.9548433133681208 0.0
  outer loop
    vertex 66.22325622009481 86.45865622578306 9.999999999999982
    vertex 61.539525673688324 85.001262814649 4.999999999999991
    vertex 66.22325622009481 86.45865622578306 4.999999999999991
  endloop
endfacet
facet normal 0.29710982298838423 -0.9548433133681208 0.0
  outer loop
    vertex 61.539525673688324 85.001262814649 4.999999999999991
    vertex 66.22325622009481 86.45865622578306 9.999999999999982
    vertex 61.539525673688324 85.001262814649 9.999999999999982
  endloop
endfacet
facet normal 0.16993594540479923 -0.9854551103218132 0.0
  outer loop
    vertex 71.05714481491098 87.29223192064481 9.999999999999982
    vertex 66.22325622009481 86.45865622578306 4.999999999999991
    vertex 71.05714481491098 87.29223192064481 4.999999999999991
  endloop
endfacet
facet normal 0.16993594540479923 -0.9854551103218132 0.0
  outer loop
    vertex 66.22325622009481 86.45865622578306 4.999999999999991
    vertex 71.05714481491098 87.29223192064481 9.999999999999982
    vertex 66.22325622009481 86.45865622578306 9.999999999999982
  endloop
endfacet
facet normal 0.0398544166801917 -0.9992054971181263 0.0
  outer loop
    vertex 75.95848228407245 87.48772718798429 9.999999999999982
    vertex 71.05714481491098 87.29223192064481 4.999999999999991
    vertex 75.95848228407245 87.48772718798429 4.999999999999991
  endloop
endfacet
facet normal 0.0398544166801917 -0.9992054971181263 0.0
  outer loop
    vertex 71.05714481491098 87.29223192064481 4.999999999999991
    vertex 75.95848228407245 87.48772718798429 9.999999999999982
    vertex 71.05714481491098 87.29223192064481 9.999999999999982
  endloop
endfacet
facet normal -0.09090903216354602 -0.9958592008266468 0.0
  outer loop
    vertex 80.84340538457435 87.04179704957582 9.999999999999982
    vertex 75.95848228407245 87.48772718798429 4.999999999999991
    vertex 80.84340538457435 87.04179704957582 4.999999999999991
  endloop
endfacet
facet normal -0.09090903216354602 -0.9958592008266468 0.0
  outer loop
    vertex 75.95848228407245 87.48772718798429 4.999999999999991
    vertex 80.84340538457435 87.04179704957582 9.999999999999982
    vertex 75.95848228407245 87.48772718798429 9.999999999999982
  endloop
endfacet
facet normal -0.22011700226222156 -0.9754734775046903 0.0
  outer loop
    vertex 85.62833172781058 85.96207149372275 9.999999999999982
    vertex 80.84340538457435 87.04179704957582 4.999999999999991
    vertex 85.62833172781058 85.96207149372275 4.999999999999991
  endloop
endfacet
facet normal -0.22011700226222156 -0.9754734775046903 0.0
  outer loop
    vertex 80.84340538457435 87.04179704957582 4.999999999999991
    vertex 85.62833172781058 85.96207149372275 9.999999999999982
    vertex 80.84340538457435 87.04179704957582 9.999999999999982
  endloop
endfacet
facet normal -0.34555870942422173 -0.9383971325302878 0.0
  outer loop
    vertex 90.23138989741615 84.2670249240422 9.999999999999982
    vertex 85.62833172781058 85.96207149372275 4.999999999999991
    vertex 90.23138989741615 84.2670249240422 4.999999999999991
  endloop
endfacet
facet normal -0.34555870942422173 -0.9383971325302878 0.0
  outer loop
    vertex 85.62833172781058 85.96207149372275 4.999999999999991
    vertex 90.23138989741615 84.2670249240422 9.999999999999982
    vertex 85.62833172781058 85.96207149372275 9.999999999999982
  endloop
endfacet
facet normal -0.46508781126100807 -0.8852645524454512 0.0
  outer loop
    vertex 94.57382029190026 81.98566005729708 9.999999999999982
    vertex 90.23138989741615 84.2670249240422 4.999999999999991
    vertex 94.57382029190026 81.98566005729708 4.999999999999991
  endloop
endfacet
facet normal -0.46508781126100807 -0.8852645524454512 0.0
  outer loop
    vertex 90.23138989741615 84.2670249240422 4.999999999999991
    vertex 94.57382029190026 81.98566005729708 9.999999999999982
    vertex 90.23138989741615 84.2670249240422 9.999999999999982
  endloop
endfacet
facet normal -0.5766591317004073 -0.8169848504265745 0.0
  outer loop
    vertex 98.58132272326412 79.1570116788713 9.999999999999982
    vertex 94.57382029190026 81.98566005729708 4.999999999999991
    vertex 98.58132272326412 79.1570116788713 4.999999999999991
  endloop
endfacet
facet normal -0.5766591317004073 -0.8169848504265745 0.0
  outer loop
    vertex 94.57382029190026 81.98566005729708 4.999999999999991
    vertex 98.58132272326412 79.1570116788713 9.999999999999982
    vertex 94.57382029190026 81.98566005729708 9.999999999999982
  endloop
endfacet
facet normal -0.6783636545163013 -0.734726311105903 0.0
  outer loop
    vertex 102.18532771381759 75.82947874676914 9.999999999999982
    vertex 98.58132272326412 79.1570116788713 4.999999999999991
    vertex 102.18532771381759 75.82947874676914 4.999999999999991
  endloop
endfacet
facet normal -0.6783636545163013 -0.734726311105903 0.0
  outer loop
    vertex 98.58132272326412 79.1570116788713 4.999999999999991
    vertex 102.18532771381759 75.82947874676914 9.999999999999982
    vertex 98.58132272326412 79.1570116788713 9.999999999999982
  endloop
endfacet
facet normal -0.7684611871254868 -0.6398964008975887 0.0
  outer loop
    vertex 102.18532771381759 75.82947874676914 9.999999999999982
    vertex 105.32416973895322 72.05999627202534 4.999999999999991
    vertex 105.32416973895322 72.05999627202534 9.999999999999982
  endloop
endfacet
facet normal -0.7684611871254868 -0.6398964008975887 0.0
  outer loop
    vertex 105.32416973895322 72.05999627202534 4.999999999999991
    vertex 102.18532771381759 75.82947874676914 9.999999999999982
    vertex 102.18532771381759 75.82947874676914 4.999999999999991
  endloop
endfacet
facet normal -0.8454101357652597 -0.5341176858571202 0.0
  outer loop
    vertex 105.32416973895322 72.05999627202534 9.999999999999982
    vertex 107.94414234136958 67.91306114488073 4.999999999999991
    vertex 107.94414234136958 67.91306114488073 9.999999999999982
  endloop
endfacet
facet normal -0.8454101357652597 -0.5341176858571202 0.0
  outer loop
    vertex 107.94414234136958 67.91306114488073 4.999999999999991
    vertex 105.32416973895322 72.05999627202534 9.999999999999982
    vertex 105.32416973895322 72.05999627202534 4.999999999999991
  endloop
endfacet
facet normal -0.9078938825901193 -0.4192000691262336 0.0
  outer loop
    vertex 107.94414234136958 67.91306114488073 9.999999999999982
    vertex 110.00041706344568 63.45962857510838 4.999999999999991
    vertex 110.00041706344568 63.45962857510838 9.999999999999982
  endloop
endfacet
facet normal -0.9078938825901193 -0.4192000691262336 0.0
  outer loop
    vertex 110.00041706344568 63.45962857510838 4.999999999999991
    vertex 107.94414234136958 67.91306114488073 9.999999999999982
    vertex 107.94414234136958 67.91306114488073 4.999999999999991
  endloop
endfacet
facet normal -0.9548433133681193 -0.29710982298838845 0.0
  outer loop
    vertex 110.00041706344568 63.45962857510838 9.999999999999982
    vertex 111.45781047457977 58.77589802870189 4.999999999999991
    vertex 111.45781047457977 58.77589802870189 9.999999999999982
  endloop
endfacet
facet normal -0.9548433133681193 -0.29710982298838845 0.0
  outer loop
    vertex 111.45781047457977 58.77589802870189 4.999999999999991
    vertex 110.00041706344568 63.45962857510838 9.999999999999982
    vertex 110.00041706344568 63.45962857510838 4.999999999999991
  endloop
endfacet
facet normal -0.9854551103218125 -0.16993594540480372 0.0
  outer loop
    vertex 111.45781047457977 58.77589802870189 9.999999999999982
    vertex 112.29138616944154 53.94200943388572 4.999999999999991
    vertex 112.29138616944154 53.94200943388572 9.999999999999982
  endloop
endfacet
facet normal -0.9854551103218125 -0.16993594540480372 0.0
  outer loop
    vertex 112.29138616944154 53.94200943388572 4.999999999999991
    vertex 111.45781047457977 58.77589802870189 9.999999999999982
    vertex 111.45781047457977 58.77589802870189 4.999999999999991
  endloop
endfacet
facet normal -0.9992054971181263 -0.039854416680187105 0.0
  outer loop
    vertex 112.29138616944154 53.94200943388572 9.999999999999982
    vertex 112.486881436781 49.040671964724254 4.999999999999991
    vertex 112.486881436781 49.040671964724254 9.999999999999982
  endloop
endfacet
facet normal -0.9992054971181263 -0.039854416680187105 0.0
  outer loop
    vertex 112.486881436781 49.040671964724254 4.999999999999991
    vertex 112.29138616944154 53.94200943388572 9.999999999999982
    vertex 112.29138616944154 53.94200943388572 4.999999999999991
  endloop
endfacet
facet normal -0.9958592008266468 0.09090903216354602 0.0
  outer loop
    vertex 112.486881436781 49.040671964724254 9.999999999999982
    vertex 112.04095129837253 44.15574886422235 4.999999999999991
    vertex 112.04095129837253 44.15574886422235 9.999999999999982
  endloop
endfacet
facet normal -0.9958592008266468 0.09090903216354602 0.0
  outer loop
    vertex 112.04095129837253 44.15574886422235 4.999999999999991
    vertex 112.486881436781 49.040671964724254 9.999999999999982
    vertex 112.486881436781 49.040671964724254 4.999999999999991
  endloop
endfacet
facet normal -0.9754734775046915 0.22011700226221564 0.0
  outer loop
    vertex 112.04095129837253 44.15574886422235 9.999999999999982
    vertex 110.96122574251947 39.370822520986096 4.999999999999991
    vertex 110.96122574251947 39.370822520986096 9.999999999999982
  endloop
endfacet
facet normal -0.9754734775046915 0.22011700226221564 0.0
  outer loop
    vertex 110.96122574251947 39.370822520986096 4.999999999999991
    vertex 112.04095129837253 44.15574886422235 9.999999999999982
    vertex 112.04095129837253 44.15574886422235 4.999999999999991
  endloop
endfacet
facet normal -0.938397132530287 0.345558709424224 0.0
  outer loop
    vertex 110.96122574251947 39.370822520986096 9.999999999999982
    vertex 109.99915424879676 36.75822701586109 4.999999999999991
    vertex 109.99915424879676 36.75822701586109 9.999999999999982
  endloop
endfacet
facet normal -0.938397132530287 0.345558709424224 0.0
  outer loop
    vertex 109.99915424879676 36.75822701586109 4.999999999999991
    vertex 110.96122574251947 39.370822520986096 9.999999999999982
    vertex 110.96122574251947 39.370822520986096 4.999999999999991
  endloop
endfacet
facet normal -1.0 0.0 0.0
  outer loop
    vertex 109.99915424879676 36.75822701586109 9.999999999999982
    vertex 109.99915424879676 0.0 0.0
    vertex 109.99915424879676 0.0 9.999999999999982
  endloop
endfacet
facet normal -1.0 0.0 0.0
  outer loop
    vertex 109.99915424879676 0.0 0.0
    vertex 109.99915424879676 36.75822701586109 9.999999999999982
    vertex 109.99915424879676 36.75822701586109 4.999999999999991
  endloop
endfacet
facet normal -1.0 0.0 0.0
  outer loop
    vertex 109.99915424879676 0.0 0.0
    vertex 109.99915424879676 36.75822701586109 4.999999999999991
    vertex 109.99915424879676 41.81750302496155 0.0
  endloop
endfacet
facet normal -1.0 0.0 0.0
  outer loop
    vertex 109.99915424879676 41.81750302496155 0.0
    vertex 109.99915424879676 36.75822701586109 4.999999999999991
    vertex 109.99915424879676 41.81750302496155 4.999999999999991
  endloop
endfacet
facet normal -0.0 -0.0 1.0
  outer loop
    vertex 37.70692232815193 46.05799056611441 4.999999999999991
    vertex 37.95735719922092 55.84425113577778 4.999999999999991
    vertex 37.51142706081245 50.959328035275874 4.999999999999991
  endloop
endfacet
facet normal -0.0 -0.0 1.0
  outer loop
    vertex 37.95735719922092 55.84425113577778 4.999999999999991
    vertex 37.70692232815193 46.05799056611441 4.999999999999991
    vertex 38.540498023013676 41.22410197129822 4.999999999999991
  endloop
endfacet
facet normal -0.0 -0.0 1.0
  outer loop
    vertex 37.95735719922092 55.84425113577778 4.999999999999991
    vertex 38.540498023013676 41.22410197129822 4.999999999999991
    vertex 39.03708275507402 60.629177479014004 4.999999999999991
  endloop
endfacet
facet normal -0.0 -0.0 1.0
  outer loop
    vertex 39.03708275507402 60.629177479014004 4.999999999999991
    vertex 38.540498023013676 41.22410197129822 4.999999999999991
    vertex 39.07180666211505 47.71402200672042 4.999999999999991
  endloop
endfacet
facet normal -0.0 -0.0 1.0
  outer loop
    vertex 39.07180666211505 47.71402200672042 4.999999999999991
    vertex 38.540498023013676 41.22410197129822 4.999999999999991
    vertex 39.997891434147746 36.54037142489172 4.999999999999991
  endloop
endfacet
facet normal -0.0 -0.0 1.0
  outer loop
    vertex 39.07180666211505 47.71402200672042 4.999999999999991
    vertex 39.997891434147746 36.54037142489172 4.999999999999991
    vertex 39.67755010415204 43.04411898829353 4.999999999999991
  endloop
endfacet
facet normal -0.0 -0.0 1.0
  outer loop
    vertex 39.67755010415204 43.04411898829353 4.999999999999991
    vertex 39.997891434147746 36.54037142489172 4.999999999999991
    vertex 39.997891434147746 41.839400554409515 4.999999999999991
  endloop
endfacet
facet normal -0.0 -0.0 1.0
  outer loop
    vertex 110.96122574251947 39.370822520986096 4.999999999999991
    vertex 109.99915424879676 41.81750302496155 4.999999999999991
    vertex 109.99915424879676 36.75822701586109 4.999999999999991
  endloop
endfacet
facet normal -0.0 -0.0 1.0
  outer loop
    vertex 109.99915424879676 41.81750302496155 4.999999999999991
    vertex 110.96122574251947 39.370822520986096 4.999999999999991
    vertex 110.29396179418288 42.909403386586135 4.999999999999991
  endloop
endfacet
facet normal -0.0 -0.0 1.0
  outer loop
    vertex 110.29396179418288 42.909403386586135 4.999999999999991
    vertex 110.96122574251947 39.370822520986096 4.999999999999991
    vertex 110.91751839936472 47.57696125759505 4.999999999999991
  endloop
endfacet
facet normal -0.0 -0.0 1.0
  outer loop
    vertex 110.91751839936472 47.57696125759505 4.999999999999991
    vertex 110.96122574251947 39.370822520986096 4.999999999999991
    vertex 110.92650183547842 52.28597799327978 4.999999999999991
  endloop
endfacet
facet normal -0.0 -0.0 1.0
  outer loop
    vertex 39.03708275507402 60.629177479014004 4.999999999999991
    vertex 39.08079009822879 52.423038742405154 4.999999999999991
    vertex 40.73212932475456 65.23223564861955 4.999999999999991
  endloop
endfacet
facet normal -0.0 -0.0 1.0
  outer loop
    vertex 39.08079009822879 52.423038742405154 4.999999999999991
    vertex 39.03708275507402 60.629177479014004 4.999999999999991
    vertex 39.07180666211505 47.71402200672042 4.999999999999991
  endloop
endfacet
facet normal -0.0 -0.0 1.0
  outer loop
    vertex 40.73212932475456 65.23223564861955 4.999999999999991
    vertex 39.08079009822879 52.423038742405154 4.999999999999991
    vertex 39.704346703410664 57.09059661341409 4.999999999999991
  endloop
endfacet
facet normal -0.0 -0.0 1.0
  outer loop
    vertex 40.73212932475456 65.23223564861955 4.999999999999991
    vertex 39.704346703410664 57.09059661341409 4.999999999999991
    vertex 40.93180725126344 61.63683241048272 4.999999999999991
  endloop
endfacet
facet normal -0.0 -0.0 1.0
  outer loop
    vertex 40.73212932475456 65.23223564861955 4.999999999999991
    vertex 40.93180725126344 61.63683241048272 4.999999999999991
    vertex 43.013494191499674 69.57466604310363 4.999999999999991
  endloop
endfacet
facet normal -0.0 -0.0 1.0
  outer loop
    vertex 43.013494191499674 69.57466604310363 4.999999999999991
    vertex 40.93180725126344 61.63683241048272 4.999999999999991
    vertex 42.742169551497035 65.98395877866852 4.999999999999991
  endloop
endfacet
facet normal -0.0 -0.0 1.0
  outer loop
    vertex 43.013494191499674 69.57466604310363 4.999999999999991
    vertex 42.742169551497035 65.98395877866852 4.999999999999991
    vertex 45.10445780322717 70.05759518056071 4.999999999999991
  endloop
endfacet
facet normal -0.0 -0.0 1.0
  outer loop
    vertex 43.013494191499674 69.57466604310363 4.999999999999991
    vertex 45.10445780322717 70.05759518056071 4.999999999999991
    vertex 45.84214256992548 73.58216847446748 4.999999999999991
  endloop
endfacet
facet normal -0.0 -0.0 1.0
  outer loop
    vertex 45.84214256992548 73.58216847446748 4.999999999999991
    vertex 45.10445780322717 70.05759518056071 4.999999999999991
    vertex 47.978252599516715 73.78804056789753 4.999999999999991
  endloop
endfacet
facet normal -0.0 -0.0 1.0
  outer loop
    vertex 45.84214256992548 73.58216847446748 4.999999999999991
    vertex 47.978252599516715 73.78804056789753 4.999999999999991
    vertex 49.1696755020276 77.18617346502089 4.999999999999991
  endloop
endfacet
facet normal -0.0 -0.0 1.0
  outer loop
    vertex 49.1696755020276 77.18617346502089 4.999999999999991
    vertex 47.978252599516715 73.78804056789753 4.999999999999991
    vertex 51.31438251463468 77.11146598582675 4.999999999999991
  endloop
endfacet
facet normal -0.0 -0.0 1.0
  outer loop
    vertex 49.1696755020276 77.18617346502089 4.999999999999991
    vertex 51.31438251463468 77.11146598582675 4.999999999999991
    vertex 52.939157976771384 80.32501549015652 4.999999999999991
  endloop
endfacet
facet normal -0.0 -0.0 1.0
  outer loop
    vertex 52.939157976771384 80.32501549015652 4.999999999999991
    vertex 51.31438251463468 77.11146598582675 4.999999999999991
    vertex 55.0557654407835 79.97100670402007 4.999999999999991
  endloop
endfacet
facet normal -0.0 -0.0 1.0
  outer loop
    vertex 52.939157976771384 80.32501549015652 4.999999999999991
    vertex 55.0557654407835 79.97100670402007 4.999999999999991
    vertex 57.086093103916006 82.94498809257287 4.999999999999991
  endloop
endfacet
facet normal -0.0 -0.0 1.0
  outer loop
    vertex 57.086093103916006 82.94498809257287 4.999999999999991
    vertex 55.0557654407835 79.97100670402007 4.999999999999991
    vertex 59.13838527878941 82.31773518797468 4.999999999999991
  endloop
endfacet
facet normal -0.0 -0.0 1.0
  outer loop
    vertex 57.086093103916006 82.94498809257287 4.999999999999991
    vertex 59.13838527878941 82.31773518797468 4.999999999999991
    vertex 61.539525673688324 85.001262814649 4.999999999999991
  endloop
endfacet
facet normal -0.0 -0.0 1.0
  outer loop
    vertex 61.539525673688324 85.001262814649 4.999999999999991
    vertex 59.13838527878941 82.31773518797468 4.999999999999991
    vertex 63.49238727130809 84.11149826269407 4.999999999999991
  endloop
endfacet
facet normal -0.0 -0.0 1.0
  outer loop
    vertex 61.539525673688324 85.001262814649 4.999999999999991
    vertex 63.49238727130809 84.11149826269407 4.999999999999991
    vertex 66.22325622009481 86.45865622578306 4.999999999999991
  endloop
endfacet
facet normal -0.0 -0.0 1.0
  outer loop
    vertex 66.22325622009481 86.45865622578306 4.999999999999991
    vertex 63.49238727130809 84.11149826269407 4.999999999999991
    vertex 68.0432732370901 85.3216041446447 4.999999999999991
  endloop
endfacet
facet normal -0.0 -0.0 1.0
  outer loop
    vertex 66.22325622009481 86.45865622578306 4.999999999999991
    vertex 68.0432732370901 85.3216041446447 4.999999999999991
    vertex 71.05714481491098 87.29223192064481 4.999999999999991
  endloop
endfacet
facet normal -0.0 -0.0 1.0
  outer loop
    vertex 71.05714481491098 87.29223192064481 4.999999999999991
    vertex 68.0432732370901 85.3216041446447 4.999999999999991
    vertex 72.713176255517 85.9273475866817 4.999999999999991
  endloop
endfacet
facet normal -0.0 -0.0 1.0
  outer loop
    vertex 71.05714481491098 87.29223192064481 4.999999999999991
    vertex 72.713176255517 85.9273475866817 4.999999999999991
    vertex 75.95848228407245 87.48772718798429 4.999999999999991
  endloop
endfacet
facet normal -0.0 -0.0 1.0
  outer loop
    vertex 75.95848228407245 87.48772718798429 4.999999999999991
    vertex 72.713176255517 85.9273475866817 4.999999999999991
    vertex 77.42219299120173 85.91836415056797 4.999999999999991
  endloop
endfacet
facet normal -0.0 -0.0 1.0
  outer loop
    vertex 75.95848228407245 87.48772718798429 4.999999999999991
    vertex 77.42219299120173 85.91836415056797 4.999999999999991
    vertex 80.84340538457435 87.04179704957582 4.999999999999991
  endloop
endfacet
facet normal -0.0 -0.0 1.0
  outer loop
    vertex 80.84340538457435 87.04179704957582 4.999999999999991
    vertex 77.42219299120173 85.91836415056797 4.999999999999991
    vertex 82.08975086221066 85.29480754538612 4.999999999999991
  endloop
endfacet
facet normal -0.0 -0.0 1.0
  outer loop
    vertex 80.84340538457435 87.04179704957582 4.999999999999991
    vertex 82.08975086221066 85.29480754538612 4.999999999999991
    vertex 85.62833172781058 85.96207149372275 4.999999999999991
  endloop
endfacet
facet normal -0.0 -0.0 1.0
  outer loop
    vertex 85.62833172781058 85.96207149372275 4.999999999999991
    vertex 82.08975086221066 85.29480754538612 4.999999999999991
    vertex 86.63598665927931 84.06734699753333 4.999999999999991
  endloop
endfacet
facet normal -0.0 -0.0 1.0
  outer loop
    vertex 85.62833172781058 85.96207149372275 4.999999999999991
    vertex 86.63598665927931 84.06734699753333 4.999999999999991
    vertex 90.23138989741615 84.2670249240422 4.999999999999991
  endloop
endfacet
facet normal -0.0 -0.0 1.0
  outer loop
    vertex 90.23138989741615 84.2670249240422 4.999999999999991
    vertex 86.63598665927931 84.06734699753333 4.999999999999991
    vertex 90.98311302746514 82.25698469729974 4.999999999999991
  endloop
endfacet
facet normal -0.0 -0.0 1.0
  outer loop
    vertex 90.23138989741615 84.2670249240422 4.999999999999991
    vertex 90.98311302746514 82.25698469729974 4.999999999999991
    vertex 94.57382029190026 81.98566005729708 4.999999999999991
  endloop
endfacet
facet normal -0.0 -0.0 1.0
  outer loop
    vertex 94.57382029190026 81.98566005729708 4.999999999999991
    vertex 90.98311302746514 82.25698469729974 4.999999999999991
    vertex 95.05674942935735 79.89469644556964 4.999999999999991
  endloop
endfacet
facet normal -0.0 -0.0 1.0
  outer loop
    vertex 94.57382029190026 81.98566005729708 4.999999999999991
    vertex 95.05674942935735 79.89469644556964 4.999999999999991
    vertex 98.58132272326412 79.1570116788713 4.999999999999991
  endloop
endfacet
facet normal -0.0 -0.0 1.0
  outer loop
    vertex 98.58132272326412 79.1570116788713 4.999999999999991
    vertex 95.05674942935735 79.89469644556964 4.999999999999991
    vertex 98.78719481669414 77.02090164928009 4.999999999999991
  endloop
endfacet
facet normal -0.0 -0.0 1.0
  outer loop
    vertex 98.58132272326412 79.1570116788713 4.999999999999991
    vertex 98.78719481669414 77.02090164928009 4.999999999999991
    vertex 102.18532771381759 75.82947874676914 4.999999999999991
  endloop
endfacet
facet normal -0.0 -0.0 1.0
  outer loop
    vertex 102.18532771381759 75.82947874676914 4.999999999999991
    vertex 98.78719481669414 77.02090164928009 4.999999999999991
    vertex 102.11062023462345 73.6847717341621 4.999999999999991
  endloop
endfacet
facet normal -0.0 -0.0 1.0
  outer loop
    vertex 102.18532771381759 75.82947874676914 4.999999999999991
    vertex 102.11062023462345 73.6847717341621 4.999999999999991
    vertex 104.97016095281678 69.9433888080133 4.999999999999991
  endloop
endfacet
facet normal -0.0 -0.0 1.0
  outer loop
    vertex 102.18532771381759 75.82947874676914 4.999999999999991
    vertex 104.97016095281678 69.9433888080133 4.999999999999991
    vertex 105.32416973895322 72.05999627202534 4.999999999999991
  endloop
endfacet
facet normal -0.0 -0.0 1.0
  outer loop
    vertex 105.32416973895322 72.05999627202534 4.999999999999991
    vertex 104.97016095281678 69.9433888080133 4.999999999999991
    vertex 107.31688943677136 65.86076897000737 4.999999999999991
  endloop
endfacet
facet normal -0.0 -0.0 1.0
  outer loop
    vertex 105.32416973895322 72.05999627202534 4.999999999999991
    vertex 107.31688943677136 65.86076897000737 4.999999999999991
    vertex 107.94414234136958 67.91306114488073 4.999999999999991
  endloop
endfacet
facet normal -0.0 -0.0 1.0
  outer loop
    vertex 107.94414234136958 67.91306114488073 4.999999999999991
    vertex 107.31688943677136 65.86076897000737 4.999999999999991
    vertex 109.11065251149078 61.50676697748869 4.999999999999991
  endloop
endfacet
facet normal -0.0 -0.0 1.0
  outer loop
    vertex 107.94414234136958 67.91306114488073 4.999999999999991
    vertex 109.11065251149078 61.50676697748869 4.999999999999991
    vertex 110.00041706344568 63.45962857510838 4.999999999999991
  endloop
endfacet
facet normal -0.0 -0.0 1.0
  outer loop
    vertex 110.00041706344568 63.45962857510838 4.999999999999991
    vertex 109.11065251149078 61.50676697748869 4.999999999999991
    vertex 110.32075839344144 56.955881011706666 4.999999999999991
  endloop
endfacet
facet normal -0.0 -0.0 1.0
  outer loop
    vertex 110.00041706344568 63.45962857510838 4.999999999999991
    vertex 110.32075839344144 56.955881011706666 4.999999999999991
    vertex 111.45781047457977 58.77589802870189 4.999999999999991
  endloop
endfacet
facet normal -0.0 -0.0 1.0
  outer loop
    vertex 111.45781047457977 58.77589802870189 4.999999999999991
    vertex 110.32075839344144 56.955881011706666 4.999999999999991
    vertex 110.92650183547842 52.28597799327978 4.999999999999991
  endloop
endfacet
facet normal -0.0 -0.0 1.0
  outer loop
    vertex 111.45781047457977 58.77589802870189 4.999999999999991
    vertex 110.92650183547842 52.28597799327978 4.999999999999991
    vertex 110.96122574251947 39.370822520986096 4.999999999999991
  endloop
endfacet
facet normal -0.0 -0.0 1.0
  outer loop
    vertex 111.45781047457977 58.77589802870189 4.999999999999991
    vertex 110.96122574251947 39.370822520986096 4.999999999999991
    vertex 112.04095129837253 44.15574886422235 4.999999999999991
  endloop
endfacet
facet normal -0.0 -0.0 1.0
  outer loop
    vertex 111.45781047457977 58.77589802870189 4.999999999999991
    vertex 112.04095129837253 44.15574886422235 4.999999999999991
    vertex 112.29138616944154 53.94200943388572 4.999999999999991
  endloop
endfacet
facet normal -0.0 -0.0 1.0
  outer loop
    vertex 112.29138616944154 53.94200943388572 4.999999999999991
    vertex 112.04095129837253 44.15574886422235 4.999999999999991
    vertex 112.486881436781 49.040671964724254 4.999999999999991
  endloop
endfacet
facet normal 0.9999999994556492 3.189496164263992e-05 8.450616541460105e-06
  outer loop
    vertex 39.997891434147746 41.839400554409515 0.0
    vertex 39.999154248796714 0.0 9.999999999999982
    vertex 39.999154248796714 0.0 0.0
  endloop
endfacet
facet normal 0.9999999994556492 3.189496164263992e-05 8.450616541460105e-06
  outer loop
    vertex 39.999154248796714 0.0 9.999999999999982
    vertex 39.997891434147746 41.839400554409515 0.0
    vertex 39.997891434147746 36.54037142489172 4.999999999999991
  endloop
endfacet
facet normal 0.9999999994556492 3.189496164263992e-05 8.450616541460105e-06
  outer loop
    vertex 39.997891434147746 36.54037142489172 4.999999999999991
    vertex 39.997891434147746 41.839400554409515 0.0
    vertex 39.997891434147746 41.839400554409515 4.999999999999991
  endloop
endfacet
facet normal 0.9999999994556492 3.189496164263992e-05 8.450616541460105e-06
  outer loop
    vertex 39.997891434147746 36.54037142489172 9.999999999999982
    vertex 39.999154248796714 0.0 9.999999999999982
    vertex 39.997891434147746 36.54037142489172 4.999999999999991
  endloop
endfacet
facet normal -0.0 -0.0 1.0
  outer loop
    vertex 39.999154248796714 0.0 9.999999999999982
    vertex 0.0 125.0 9.999999999999982
    vertex 0.0 0.0 9.999999999999982
  endloop
endfacet
facet normal -0.0 -0.0 1.0
  outer loop
    vertex 0.0 125.0 9.999999999999982
    vertex 39.999154248796714 0.0 9.999999999999982
    vertex 37.70692232815193 46.05799056611441 9.999999999999982
  endloop
endfacet
facet normal -0.0 -0.0 1.0
  outer loop
    vertex 0.0 125.0 9.999999999999982
    vertex 37.70692232815193 46.05799056611441 9.999999999999982
    vertex 37.51142706081245 50.959328035275874 9.999999999999982
  endloop
endfacet
facet normal -0.0 -0.0 1.0
  outer loop
    vertex 37.70692232815193 46.05799056611441 9.999999999999982
    vertex 39.999154248796714 0.0 9.999999999999982
    vertex 38.540498023013676 41.22410197129822 9.999999999999982
  endloop
endfacet
facet normal -0.0 -0.0 1.0
  outer loop
    vertex 38.540498023013676 41.22410197129822 9.999999999999982
    vertex 39.999154248796714 0.0 9.999999999999982
    vertex 39.997891434147746 36.54037142489172 9.999999999999982
  endloop
endfacet
facet normal -0.0 -0.0 1.0
  outer loop
    vertex 149.99915424879674 0.0 9.999999999999982
    vertex 109.99915424879676 36.75822701586109 9.999999999999982
    vertex 109.99915424879676 0.0 9.999999999999982
  endloop
endfacet
facet normal -0.0 -0.0 1.0
  outer loop
    vertex 109.99915424879676 36.75822701586109 9.999999999999982
    vertex 149.99915424879674 0.0 9.999999999999982
    vertex 110.96122574251947 39.370822520986096 9.999999999999982
  endloop
endfacet
facet normal -0.0 -0.0 1.0
  outer loop
    vertex 110.96122574251947 39.370822520986096 9.999999999999982
    vertex 149.99915424879674 0.0 9.999999999999982
    vertex 112.04095129837253 44.15574886422235 9.999999999999982
  endloop
endfacet
facet normal -0.0 -0.0 1.0
  outer loop
    vertex 112.04095129837253 44.15574886422235 9.999999999999982
    vertex 149.99915424879674 0.0 9.999999999999982
    vertex 112.486881436781 49.040671964724254 9.999999999999982
  endloop
endfacet
facet normal -0.0 -0.0 1.0
  outer loop
    vertex 0.0 125.0 9.999999999999982
    vertex 61.539525673688324 85.001262814649 9.999999999999982
    vertex 149.99915424879674 125.0 9.999999999999982
  endloop
endfacet
facet normal -0.0 -0.0 1.0
  outer loop
    vertex 61.539525673688324 85.001262814649 9.999999999999982
    vertex 0.0 125.0 9.999999999999982
    vertex 57.086093103916006 82.94498809257287 9.999999999999982
  endloop
endfacet
facet normal -0.0 -0.0 1.0
  outer loop
    vertex 57.086093103916006 82.94498809257287 9.999999999999982
    vertex 0.0 125.0 9.999999999999982
    vertex 52.939157976771384 80.32501549015652 9.999999999999982
  endloop
endfacet
facet normal -0.0 -0.0 1.0
  outer loop
    vertex 52.939157976771384 80.32501549015652 9.999999999999982
    vertex 0.0 125.0 9.999999999999982
    vertex 49.1696755020276 77.18617346502089 9.999999999999982
  endloop
endfacet
facet normal -0.0 -0.0 1.0
  outer loop
    vertex 49.1696755020276 77.18617346502089 9.999999999999982
    vertex 0.0 125.0 9.999999999999982
    vertex 45.84214256992548 73.58216847446748 9.999999999999982
  endloop
endfacet
facet normal -0.0 -0.0 1.0
  outer loop
    vertex 45.84214256992548 73.58216847446748 9.999999999999982
    vertex 0.0 125.0 9.999999999999982
    vertex 43.013494191499674 69.57466604310363 9.999999999999982
  endloop
endfacet
facet normal -0.0 -0.0 1.0
  outer loop
    vertex 43.013494191499674 69.57466604310363 9.999999999999982
    vertex 0.0 125.0 9.999999999999982
    vertex 40.73212932475456 65.23223564861955 9.999999999999982
  endloop
endfacet
facet normal -0.0 -0.0 1.0
  outer loop
    vertex 40.73212932475456 65.23223564861955 9.999999999999982
    vertex 0.0 125.0 9.999999999999982
    vertex 39.03708275507402 60.629177479014004 9.999999999999982
  endloop
endfacet
facet normal -0.0 -0.0 1.0
  outer loop
    vertex 39.03708275507402 60.629177479014004 9.999999999999982
    vertex 0.0 125.0 9.999999999999982
    vertex 37.95735719922092 55.84425113577778 9.999999999999982
  endloop
endfacet
facet normal -0.0 -0.0 1.0
  outer loop
    vertex 37.95735719922092 55.84425113577778 9.999999999999982
    vertex 0.0 125.0 9.999999999999982
    vertex 37.51142706081245 50.959328035275874 9.999999999999982
  endloop
endfacet
facet normal -0.0 -0.0 1.0
  outer loop
    vertex 149.99915424879674 125.0 9.999999999999982
    vertex 61.539525673688324 85.001262814649 9.999999999999982
    vertex 66.22325622009481 86.45865622578306 9.999999999999982
  endloop
endfacet
facet normal -0.0 -0.0 1.0
  outer loop
    vertex 149.99915424879674 125.0 9.999999999999982
    vertex 66.22325622009481 86.45865622578306 9.999999999999982
    vertex 71.05714481491098 87.29223192064481 9.999999999999982
  endloop
endfacet
facet normal -0.0 -0.0 1.0
  outer loop
    vertex 149.99915424879674 125.0 9.999999999999982
    vertex 71.05714481491098 87.29223192064481 9.999999999999982
    vertex 75.95848228407245 87.48772718798429 9.999999999999982
  endloop
endfacet
facet normal -0.0 -0.0 1.0
  outer loop
    vertex 149.99915424879674 125.0 9.999999999999982
    vertex 75.95848228407245 87.48772718798429 9.999999999999982
    vertex 80.84340538457435 87.04179704957582 9.999999999999982
  endloop
endfacet
facet normal -0.0 -0.0 1.0
  outer loop
    vertex 149.99915424879674 125.0 9.999999999999982
    vertex 80.84340538457435 87.04179704957582 9.999999999999982
    vertex 85.62833172781058 85.96207149372275 9.999999999999982
  endloop
endfacet
facet normal -0.0 -0.0 1.0
  outer loop
    vertex 149.99915424879674 125.0 9.999999999999982
    vertex 85.62833172781058 85.96207149372275 9.999999999999982
    vertex 90.23138989741615 84.2670249240422 9.999999999999982
  endloop
endfacet
facet normal -0.0 -0.0 1.0
  outer loop
    vertex 149.99915424879674 125.0 9.999999999999982
    vertex 90.23138989741615 84.2670249240422 9.999999999999982
    vertex 94.57382029190026 81.98566005729708 9.999999999999982
  endloop
endfacet
facet normal -0.0 -0.0 1.0
  outer loop
    vertex 149.99915424879674 125.0 9.999999999999982
    vertex 94.57382029190026 81.98566005729708 9.999999999999982
    vertex 98.58132272326412 79.1570116788713 9.999999999999982
  endloop
endfacet
facet normal -0.0 -0.0 1.0
  outer loop
    vertex 149.99915424879674 125.0 9.999999999999982
    vertex 98.58132272326412 79.1570116788713 9.999999999999982
    vertex 102.18532771381759 75.82947874676914 9.999999999999982
  endloop
endfacet
facet normal -0.0 -0.0 1.0
  outer loop
    vertex 149.99915424879674 125.0 9.999999999999982
    vertex 102.18532771381759 75.82947874676914 9.999999999999982
    vertex 105.32416973895322 72.05999627202534 9.999999999999982
  endloop
endfacet
facet normal -0.0 -0.0 1.0
  outer loop
    vertex 149.99915424879674 125.0 9.999999999999982
    vertex 105.32416973895322 72.05999627202534 9.999999999999982
    vertex 107.94414234136958 67.91306114488073 9.999999999999982
  endloop
endfacet
facet normal -0.0 -0.0 1.0
  outer loop
    vertex 149.99915424879674 125.0 9.999999999999982
    vertex 107.94414234136958 67.91306114488073 9.999999999999982
    vertex 110.00041706344568 63.45962857510838 9.999999999999982
  endloop
endfacet
facet normal -0.0 -0.0 1.0
  outer loop
    vertex 149.99915424879674 125.0 9.999999999999982
    vertex 110.00041706344568 63.45962857510838 9.999999999999982
    vertex 111.45781047457977 58.77589802870189 9.999999999999982
  endloop
endfacet
facet normal -0.0 -0.0 1.0
  outer loop
    vertex 149.99915424879674 125.0 9.999999999999982
    vertex 111.45781047457977 58.77589802870189 9.999999999999982
    vertex 112.29138616944154 53.94200943388572 9.999999999999982
  endloop
endfacet
facet normal -0.0 -0.0 1.0
  outer loop
    vertex 149.99915424879674 125.0 9.999999999999982
    vertex 112.29138616944154 53.94200943388572 9.999999999999982
    vertex 112.486881436781 49.040671964724254 9.999999999999982
  endloop
endfacet
facet normal -0.0 -0.0 1.0
  outer loop
    vertex 149.99915424879674 125.0 9.999999999999982
    vertex 112.486881436781 49.040671964724254 9.999999999999982
    vertex 149.99915424879674 0.0 9.999999999999982
  endloop
endfacet
facet normal 0.0 -1.0 0.0
  outer loop
    vertex 149.99915424879674 0.0 9.999999999999982
    vertex 109.99915424879676 0.0 0.0
    vertex 149.99915424879666 0.0 0.0
  endloop
endfacet
facet normal 0.0 -1.0 0.0
  outer loop
    vertex 109.99915424879676 0.0 0.0
    vertex 149.99915424879674 0.0 9.999999999999982
    vertex 109.99915424879676 0.0 9.999999999999982
  endloop
endfacet
facet normal 0.0 0.0 -1.0
  outer loop
    vertex 0.0 125.0 0.0
    vertex 45.10445780322717 70.05759518056071 0.0
    vertex 0.0 0.0 0.0
  endloop
endfacet
facet normal 0.0 0.0 -1.0
  outer loop
    vertex 45.10445780322717 70.05759518056071 0.0
    vertex 0.0 125.0 0.0
    vertex 47.978252599516715 73.78804056789753 0.0
  endloop
endfacet
facet normal 0.0 0.0 -1.0
  outer loop
    vertex 47.978252599516715 73.78804056789753 0.0
    vertex 0.0 125.0 0.0
    vertex 51.31438251463468 77.11146598582675 0.0
  endloop
endfacet
facet normal 0.0 0.0 -1.0
  outer loop
    vertex 51.31438251463468 77.11146598582675 0.0
    vertex 0.0 125.0 0.0
    vertex 55.0557654407835 79.97100670402007 0.0
  endloop
endfacet
facet normal 0.0 0.0 -1.0
  outer loop
    vertex 55.0557654407835 79.97100670402007 0.0
    vertex 0.0 125.0 0.0
    vertex 59.13838527878941 82.31773518797468 0.0
  endloop
endfacet
facet normal 0.0 0.0 -1.0
  outer loop
    vertex 59.13838527878941 82.31773518797468 0.0
    vertex 0.0 125.0 0.0
    vertex 149.99915424879666 125.0 0.0
  endloop
endfacet
facet normal 0.0 0.0 -1.0
  outer loop
    vertex 0.0 0.0 0.0
    vertex 45.10445780322717 70.05759518056071 0.0
    vertex 42.742169551497035 65.98395877866852 0.0
  endloop
endfacet
facet normal 0.0 0.0 -1.0
  outer loop
    vertex 0.0 0.0 0.0
    vertex 42.742169551497035 65.98395877866852 0.0
    vertex 40.93180725126344 61.63683241048272 0.0
  endloop
endfacet
facet normal 0.0 0.0 -1.0
  outer loop
    vertex 0.0 0.0 0.0
    vertex 40.93180725126344 61.63683241048272 0.0
    vertex 39.704346703410664 57.09059661341409 0.0
  endloop
endfacet
facet normal 0.0 0.0 -1.0
  outer loop
    vertex 0.0 0.0 0.0
    vertex 39.704346703410664 57.09059661341409 0.0
    vertex 39.08079009822879 52.423038742405154 0.0
  endloop
endfacet
facet normal 0.0 0.0 -1.0
  outer loop
    vertex 0.0 0.0 0.0
    vertex 39.08079009822879 52.423038742405154 0.0
    vertex 39.07180666211505 47.71402200672042 0.0
  endloop
endfacet
facet normal 0.0 0.0 -1.0
  outer loop
    vertex 59.13838527878941 82.31773518797468 0.0
    vertex 149.99915424879666 125.0 0.0
    vertex 63.49238727130809 84.11149826269407 0.0
  endloop
endfacet
facet normal 0.0 0.0 -1.0
  outer loop
    vertex 63.49238727130809 84.11149826269407 0.0
    vertex 149.99915424879666 125.0 0.0
    vertex 68.0432732370901 85.3216041446447 0.0
  endloop
endfacet
facet normal 0.0 0.0 -1.0
  outer loop
    vertex 68.0432732370901 85.3216041446447 0.0
    vertex 149.99915424879666 125.0 0.0
    vertex 72.713176255517 85.9273475866817 0.0
  endloop
endfacet
facet normal 0.0 0.0 -1.0
  outer loop
    vertex 72.713176255517 85.9273475866817 0.0
    vertex 149.99915424879666 125.0 0.0
    vertex 77.42219299120173 85.91836415056797 0.0
  endloop
endfacet
facet normal 0.0 0.0 -1.0
  outer loop
    vertex 77.42219299120173 85.91836415056797 0.0
    vertex 149.99915424879666 125.0 0.0
    vertex 82.08975086221066 85.29480754538612 0.0
  endloop
endfacet
facet normal 0.0 0.0 -1.0
  outer loop
    vertex 82.08975086221066 85.29480754538612 0.0
    vertex 149.99915424879666 125.0 0.0
    vertex 86.63598665927931 84.06734699753333 0.0
  endloop
endfacet
facet normal 0.0 0.0 -1.0
  outer loop
    vertex 86.63598665927931 84.06734699753333 0.0
    vertex 149.99915424879666 125.0 0.0
    vertex 90.98311302746514 82.25698469729974 0.0
  endloop
endfacet
facet normal 0.0 0.0 -1.0
  outer loop
    vertex 90.98311302746514 82.25698469729974 0.0
    vertex 149.99915424879666 125.0 0.0
    vertex 95.05674942935735 79.89469644556964 0.0
  endloop
endfacet
facet normal 0.0 0.0 -1.0
  outer loop
    vertex 95.05674942935735 79.89469644556964 0.0
    vertex 149.99915424879666 125.0 0.0
    vertex 98.78719481669414 77.02090164928009 0.0
  endloop
endfacet
facet normal 0.0 0.0 -1.0
  outer loop
    vertex 98.78719481669414 77.02090164928009 0.0
    vertex 149.99915424879666 125.0 0.0
    vertex 102.11062023462345 73.6847717341621 0.0
  endloop
endfacet
facet normal 0.0 0.0 -1.0
  outer loop
    vertex 102.11062023462345 73.6847717341621 0.0
    vertex 149.99915424879666 125.0 0.0
    vertex 104.97016095281678 69.9433888080133 0.0
  endloop
endfacet
facet normal 0.0 0.0 -1.0
  outer loop
    vertex 104.97016095281678 69.9433888080133 0.0
    vertex 149.99915424879666 125.0 0.0
    vertex 107.31688943677136 65.86076897000737 0.0
  endloop
endfacet
facet normal 0.0 0.0 -1.0
  outer loop
    vertex 107.31688943677136 65.86076897000737 0.0
    vertex 149.99915424879666 125.0 0.0
    vertex 109.11065251149078 61.50676697748869 0.0
  endloop
endfacet
facet normal 0.0 0.0 -1.0
  outer loop
    vertex 109.11065251149078 61.50676697748869 0.0
    vertex 149.99915424879666 125.0 0.0
    vertex 110.32075839344144 56.955881011706666 0.0
  endloop
endfacet
facet normal 0.0 0.0 -1.0
  outer loop
    vertex 110.32075839344144 56.955881011706666 0.0
    vertex 149.99915424879666 125.0 0.0
    vertex 110.92650183547842 52.28597799327978 0.0
  endloop
endfacet
facet normal 0.0 0.0 -1.0
  outer loop
    vertex 110.29396179418288 42.909403386586135 0.0
    vertex 109.99915424879676 0.0 0.0
    vertex 109.99915424879676 41.81750302496155 0.0
  endloop
endfacet
facet normal 0.0 0.0 -1.0
  outer loop
    vertex 109.99915424879676 0.0 0.0
    vertex 110.29396179418288 42.909403386586135 0.0
    vertex 149.99915424879666 0.0 0.0
  endloop
endfacet
facet normal 0.0 0.0 -1.0
  outer loop
    vertex 149.99915424879666 0.0 0.0
    vertex 110.29396179418288 42.909403386586135 0.0
    vertex 110.91751839936472 47.57696125759505 0.0
  endloop
endfacet
facet normal 0.0 0.0 -1.0
  outer loop
    vertex 149.99915424879666 0.0 0.0
    vertex 110.91751839936472 47.57696125759505 0.0
    vertex 110.92650183547842 52.28597799327978 0.0
  endloop
endfacet
facet normal 0.0 0.0 -1.0
  outer loop
    vertex 149.99915424879666 0.0 0.0
    vertex 110.92650183547842 52.28597799327978 0.0
    vertex 149.99915424879666 125.0 0.0
  endloop
endfacet
facet normal 0.0 0.0 -1.0
  outer loop
    vertex 39.07180666211505 47.71402200672042 0.0
    vertex 39.999154248796714 0.0 0.0
    vertex 0.0 0.0 0.0
  endloop
endfacet
facet normal 0.0 0.0 -1.0
  outer loop
    vertex 39.999154248796714 0.0 0.0
    vertex 39.07180666211505 47.71402200672042 0.0
    vertex 39.67755010415204 43.04411898829353 0.0
  endloop
endfacet
facet normal 0.0 0.0 -1.0
  outer loop
    vertex 39.999154248796714 0.0 0.0
    vertex 39.67755010415204 43.04411898829353 0.0
    vertex 39.997891434147746 41.839400554409515 0.0
  endloop
endfacet
facet normal -0.0 1.0 -0.0
  outer loop
    vertex 0.0 125.0 9.999999999999982
    vertex 149.99915424879666 125.0 0.0
    vertex 0.0 125.0 0.0
  endloop
endfacet
facet normal -0.0 1.0 -0.0
  outer loop
    vertex 149.99915424879666 125.0 0.0
    vertex 0.0 125.0 9.999999999999982
    vertex 149.99915424879674 125.0 9.999999999999982
  endloop
endfacet
facet normal 1.0 -0.0 -9.023892744153288e-15
  outer loop
    vertex 149.99915424879666 125.0 0.0
    vertex 149.99915424879674 0.0 9.999999999999982
    vertex 149.99915424879666 0.0 0.0
  endloop
endfacet
facet normal 1.0 -0.0 -9.023892744153288e-15
  outer loop
    vertex 149.99915424879674 0.0 9.999999999999982
    vertex 149.99915424879666 125.0 0.0
    vertex 149.99915424879674 125.0 9.999999999999982
  endloop
endfacet
endsolid Spindle tray
