# Alias OBJ Model File
# Exported from SketchUp, (c) 2000-2012 Trimble Navigation Limited
# File units = millimeters

mtllib Hose clip.mtl

g Mesh1 Model

usemtl FrontColor
v 3.11794 0 -11.2618
vt 0.358159 0
vn 0.904827 0 -0.425779
v 2.6938 0 -12.2419
vt 0.400205 0
vn 0.929776 0 -0.368125
v 2.6938 50 -12.2419
vt 0.400205 1.9685
v 3.11794 50 -11.2618
vt 0.358159 1.9685
f 1/1/1 2/2/2 3/3/2 4/4/1 

v 31.9859 0 -5.83588
vt -1.25929 0.229759
vn 0 -1 -0
v 31.575 0 -5.42498
vt -1.24311 0.213582
v 30.5149 0 -6.48512
vt -1.20137 0.25532
v 30.8925 0 -6.8627
vt -1.21624 0.270185
v 31.5987 0 -7.66379
vt -1.24404 0.301724
v 32.2533 0 -8.50765
vt -1.26981 0.334947
v 32.8536 0 -9.39094
vt -1.29345 0.369722
v 33.3972 0 -10.3102
vt -1.31485 0.405913
v 33.8821 0 -11.2618
vt -1.33394 0.443376
v 34.3062 0 -12.2419
vt -1.35064 0.481964
v 34.668 0 -13.2467
vt -1.36488 0.521524
v 34.9659 0 -14.2723
vt -1.37661 0.5619
v 35.1989 0 -15.3145
vt -1.38578 0.602934
v 35.3659 0 -16.3693
vt -1.39236 0.644462
v 35.4665 0 -17.4326
vt -1.39632 0.686321
v 35.5 0 -18.5
vt -1.39764 0.728346
v 35.4665 0 -19.5674
vt -1.39632 0.770372
v 35.3659 0 -20.6307
vt -1.39236 0.812231
v 35.1989 0 -21.6855
vt -1.38578 0.853759
v 34.9659 0 -22.7277
vt -1.37661 0.894792
v 34.668 0 -23.7533
vt -1.36488 0.935169
v 34.3062 0 -24.7581
vt -1.35064 0.974729
v 33.8821 0 -25.7382
vt -1.33394 1.01332
v 33.3972 0 -26.6898
vt -1.31485 1.05078
v 32.8536 0 -27.6091
vt -1.29345 1.08697
v 32.2533 0 -28.4923
vt -1.26981 1.12175
v 31.5987 0 -29.3362
vt -1.24404 1.15497
v 30.8925 0 -30.1373
vt -1.21624 1.18651
v 30.1373 0 -30.8925
vt -1.18651 1.21624
v 29.3362 0 -31.5987
vt -1.15497 1.24404
v 28.4923 0 -32.2533
vt -1.12175 1.26981
v 27.6091 0 -32.8536
vt -1.08697 1.29345
v 26.6898 0 -33.3972
vt -1.05078 1.31485
v 25.7382 0 -33.8821
vt -1.01332 1.33394
v 24.7581 0 -34.3062
vt -0.974729 1.35064
v 23.7533 0 -34.668
vt -0.935169 1.36488
v 22.7277 0 -34.9659
vt -0.894792 1.37661
v 21.6855 0 -35.1989
vt -0.853759 1.38578
v 20.6307 0 -35.3659
vt -0.812231 1.39236
v 19.5674 0 -35.4665
vt -0.770372 1.39632
v 18.5 0 -35.5
vt -0.728346 1.39764
v 17.4326 0 -35.4665
vt -0.686321 1.39632
v 16.3693 0 -35.3659
vt -0.644462 1.39236
v 15.3145 0 -35.1989
vt -0.602934 1.38578
v 14.2723 0 -34.9659
vt -0.5619 1.37661
v 13.2467 0 -34.668
vt -0.521524 1.36488
v 12.2419 0 -34.3062
vt -0.481964 1.35064
v 11.2618 0 -33.8821
vt -0.443376 1.33394
v 10.3102 0 -33.3972
vt -0.405913 1.31485
v 9.39094 0 -32.8536
vt -0.369722 1.29345
v 8.50765 0 -32.2533
vt -0.334947 1.26981
v 7.66379 0 -31.5987
vt -0.301724 1.24404
v 6.8627 0 -30.8925
vt -0.270185 1.21624
v 6.10753 0 -30.1373
vt -0.240454 1.18651
v 5.40127 0 -29.3362
vt -0.212649 1.15497
v 4.74671 0 -28.4923
vt -0.186878 1.12175
v 4.14643 0 -27.6091
vt -0.163245 1.08697
v 3.60279 0 -26.6898
vt -0.141842 1.05078
v 3.11794 0 -25.7382
vt -0.122754 1.01332
v 2.6938 0 -24.7581
vt -0.106055 0.974729
v 2.33204 0 -23.7533
vt -0.0918126 0.935169
v 2.03409 0 -22.7277
vt -0.0800821 0.894792
v 1.80112 0 -21.6855
vt -0.0709101 0.853759
v 1.63405 0 -20.6307
vt -0.0643327 0.812231
v 1.53355 0 -19.5674
vt -0.0603758 0.770372
v 1.5 0 -18.5
vt -0.0590551 0.728346
v 1.53355 0 -17.4326
vt -0.0603758 0.686321
v 1.63405 0 -16.3693
vt -0.0643327 0.644462
v 1.80112 0 -15.3145
vt -0.0709101 0.602934
v 2.03409 0 -14.2723
vt -0.0800821 0.5619
v 2.33204 0 -13.2467
vt -0.0918126 0.521524
vt -0.106055 0.481964
vt -0.122754 0.443376
v 3.60279 0 -10.3102
vt -0.141842 0.405913
v 4.14643 0 -9.39094
vt -0.163245 0.369722
v 4.74671 0 -8.50765
vt -0.186878 0.334947
v 5.40127 0 -7.66379
vt -0.212649 0.301724
v 6.10753 0 -6.8627
vt -0.240454 0.270185
v 6.48512 0 -6.48512
vt -0.25532 0.25532
v 5.42498 0 -5.42498
vt -0.213582 0.213582
v 5.01408 0 -5.83588
vt -0.197405 0.229759
v 4.24551 0 -6.70766
vt -0.167146 0.264081
v 3.53319 0 -7.62597
vt -0.139102 0.300235
v 2.87993 0 -8.5872
vt -0.113383 0.338079
v 2.28833 0 -9.58756
vt -0.0900916 0.377463
v 1.7607 0 -10.6231
vt -0.0693189 0.418232
v 1.29914 0 -11.6897
vt -0.051147 0.460224
v 0.905454 0 -12.7832
vt -0.0356478 0.503275
v 0.581212 0 -13.8992
vt -0.0228823 0.547214
v 0.327686 0 -15.0334
vt -0.012901 0.591868
v 0.145878 0 -16.1813
vt -0.00574323 0.63706
v 0.0365055 0 -17.3384
vt -0.00143723 0.682613
v 5.63993e-15 0 -18.5
vt -2.22045e-16 0.728346
v 0.0365055 0 -19.6616
vt -0.00143723 0.77408
v 0.145878 0 -20.8187
vt -0.00574323 0.819632
v 0.327686 0 -21.9666
vt -0.012901 0.864825
v 0.581212 0 -23.1008
vt -0.0228823 0.909479
v 0.905454 0 -24.2168
vt -0.0356478 0.953418
v 1.29914 0 -25.3103
vt -0.051147 0.996469
v 1.7607 0 -26.3769
vt -0.0693189 1.03846
v 2.28833 0 -27.4124
vt -0.0900916 1.07923
v 2.87993 0 -28.4128
vt -0.113383 1.11861
v 3.53319 0 -29.374
vt -0.139102 1.15646
v 4.24551 0 -30.2923
vt -0.167146 1.19261
v 5.01408 0 -31.1641
vt -0.197405 1.22693
v 5.83588 0 -31.9859
vt -0.229759 1.25929
v 6.70766 0 -32.7545
vt -0.264081 1.28955
v 7.62597 0 -33.4668
vt -0.300235 1.31759
v 8.5872 0 -34.1201
vt -0.338079 1.34331
v 9.58756 0 -34.7117
vt -0.377463 1.3666
v 10.6231 0 -35.2393
vt -0.418232 1.38737
v 11.6897 0 -35.7009
vt -0.460224 1.40555
v 12.7832 0 -36.0945
vt -0.503275 1.42105
v 13.8992 0 -36.4188
vt -0.547214 1.43381
v 15.0334 0 -36.6723
vt -0.591868 1.44379
v 16.1813 0 -36.8541
vt -0.63706 1.45095
v 17.3384 0 -36.9635
vt -0.682613 1.45526
v 18.5 0 -37
vt -0.728346 1.45669
v 19.6616 0 -36.9635
vt -0.77408 1.45526
v 20.8187 0 -36.8541
vt -0.819632 1.45095
v 21.9666 0 -36.6723
vt -0.864825 1.44379
v 23.1008 0 -36.4188
vt -0.909479 1.43381
v 24.2168 0 -36.0945
vt -0.953418 1.42105
v 25.3103 0 -35.7009
vt -0.996469 1.40555
v 26.3769 0 -35.2393
vt -1.03846 1.38737
v 27.4124 0 -34.7117
vt -1.07923 1.3666
v 28.4128 0 -34.1201
vt -1.11861 1.34331
v 29.374 0 -33.4668
vt -1.15646 1.31759
v 30.2923 0 -32.7545
vt -1.19261 1.28955
v 31.1641 0 -31.9859
vt -1.22693 1.25929
v 31.9859 0 -31.1641
vt -1.25929 1.22693
v 32.7545 0 -30.2923
vt -1.28955 1.19261
v 33.4668 0 -29.374
vt -1.31759 1.15646
v 34.1201 0 -28.4128
vt -1.34331 1.11861
v 34.7117 0 -27.4124
vt -1.3666 1.07923
v 35.2393 0 -26.3769
vt -1.38737 1.03846
v 35.7009 0 -25.3103
vt -1.40555 0.996469
v 36.0945 0 -24.2168
vt -1.42105 0.953418
v 36.4188 0 -23.1008
vt -1.43381 0.909479
v 36.6723 0 -21.9666
vt -1.44379 0.864825
v 36.8541 0 -20.8187
vt -1.45095 0.819632
v 36.9635 0 -19.6616
vt -1.45526 0.77408
v 37 0 -18.5
vt -1.45669 0.728346
v 36.9635 0 -17.3384
vt -1.45526 0.682613
v 36.8541 0 -16.1813
vt -1.45095 0.63706
v 36.6723 0 -15.0334
vt -1.44379 0.591868
v 36.4188 0 -13.8992
vt -1.43381 0.547214
v 36.0945 0 -12.7832
vt -1.42105 0.503275
v 35.7009 0 -11.6897
vt -1.40555 0.460224
v 35.2393 0 -10.6231
vt -1.38737 0.418232
v 34.7117 0 -9.58756
vt -1.3666 0.377463
v 34.1201 0 -8.5872
vt -1.34331 0.338079
v 33.4668 0 -7.62597
vt -1.31759 0.300235
v 32.7545 0 -6.70766
vt -1.28955 0.264081
f 5/5/3 6/6/3 7/7/3 8/8/3 9/9/3 10/10/3 11/11/3 12/12/3 13/13/3 14/14/3 15/15/3 16/16/3 17/17/3 18/18/3 19/19/3 20/20/3 21/21/3 22/22/3 23/23/3 24/24/3 25/25/3 26/26/3 27/27/3 28/28/3 29/29/3 30/30/3 31/31/3 32/32/3 33/33/3 34/34/3 35/35/3 36/36/3 37/37/3 38/38/3 39/39/3 40/40/3 41/41/3 42/42/3 43/43/3 44/44/3 45/45/3 46/46/3 47/47/3 48/48/3 49/49/3 50/50/3 51/51/3 52/52/3 53/53/3 54/54/3 55/55/3 56/56/3 57/57/3 58/58/3 59/59/3 60/60/3 61/61/3 62/62/3 63/63/3 64/64/3 65/65/3 66/66/3 67/67/3 68/68/3 69/69/3 70/70/3 71/71/3 72/72/3 73/73/3 74/74/3 75/75/3 2/76/3 1/77/3 76/78/3 77/79/3 78/80/3 79/81/3 80/82/3 81/83/3 82/84/3 83/85/3 84/86/3 85/87/3 86/88/3 87/89/3 88/90/3 89/91/3 90/92/3 91/93/3 92/94/3 93/95/3 94/96/3 95/97/3 96/98/3 97/99/3 98/100/3 99/101/3 100/102/3 101/103/3 102/104/3 103/105/3 104/106/3 105/107/3 106/108/3 107/109/3 108/110/3 109/111/3 110/112/3 111/113/3 112/114/3 113/115/3 114/116/3 115/117/3 116/118/3 117/119/3 118/120/3 119/121/3 120/122/3 121/123/3 122/124/3 123/125/3 124/126/3 125/127/3 126/128/3 127/129/3 128/130/3 129/131/3 130/132/3 131/133/3 132/134/3 133/135/3 134/136/3 135/137/3 136/138/3 137/139/3 138/140/3 139/141/3 140/142/3 141/143/3 142/144/3 143/145/3 144/146/3 145/147/3 146/148/3 147/149/3 148/150/3 149/151/3 150/152/3 151/153/3 152/154/3 153/155/3 154/156/3 155/157/3 156/158/3 

v 31.9859 50 -5.83588
vt 1.05292 1.9685
vn 0.728969 0 0.684547
v 31.575 50 -5.42498
vt 1.03004 1.9685
vn 0.707107 0 0.707107
vt 1.03004 0
vt 1.05292 0
f 157/159/4 158/160/5 6/161/5 5/162/4 

v 5.01408 50 -5.83588
vt 0.197405 0.229759
vn 2.53893e-30 1 7.08076e-31
v 5.42498 50 -5.42498
vt 0.213582 0.213582
v 6.48512 50 -6.48512
vt 0.25532 0.25532
v 6.10753 50 -6.8627
vt 0.240454 0.270185
v 5.40127 50 -7.66379
vt 0.212649 0.301724
v 4.74671 50 -8.50765
vt 0.186878 0.334947
v 4.14643 50 -9.39094
vt 0.163245 0.369722
v 3.60279 50 -10.3102
vt 0.141842 0.405913
vt 0.122754 0.443376
vt 0.106055 0.481964
v 2.33204 50 -13.2467
vt 0.0918126 0.521524
v 2.03409 50 -14.2723
vt 0.0800821 0.5619
v 1.80112 50 -15.3145
vt 0.0709101 0.602934
v 1.63405 50 -16.3693
vt 0.0643327 0.644462
v 1.53355 50 -17.4326
vt 0.0603758 0.686321
v 1.5 50 -18.5
vt 0.0590551 0.728346
v 1.53355 50 -19.5674
vt 0.0603758 0.770372
v 1.63405 50 -20.6307
vt 0.0643327 0.812231
v 1.80112 50 -21.6855
vt 0.0709101 0.853759
v 2.03409 50 -22.7277
vt 0.0800821 0.894792
v 2.33204 50 -23.7533
vt 0.0918126 0.935169
v 2.6938 50 -24.7581
vt 0.106055 0.974729
v 3.11794 50 -25.7382
vt 0.122754 1.01332
v 3.60279 50 -26.6898
vt 0.141842 1.05078
v 4.14643 50 -27.6091
vt 0.163245 1.08697
v 4.74671 50 -28.4923
vt 0.186878 1.12175
v 5.40127 50 -29.3362
vt 0.212649 1.15497
v 6.10753 50 -30.1373
vt 0.240454 1.18651
v 6.8627 50 -30.8925
vt 0.270185 1.21624
v 7.66379 50 -31.5987
vt 0.301724 1.24404
v 8.50765 50 -32.2533
vt 0.334947 1.26981
v 9.39094 50 -32.8536
vt 0.369722 1.29345
v 10.3102 50 -33.3972
vt 0.405913 1.31485
v 11.2618 50 -33.8821
vt 0.443376 1.33394
v 12.2419 50 -34.3062
vt 0.481964 1.35064
v 13.2467 50 -34.668
vt 0.521524 1.36488
v 14.2723 50 -34.9659
vt 0.5619 1.37661
v 15.3145 50 -35.1989
vt 0.602934 1.38578
v 16.3693 50 -35.3659
vt 0.644462 1.39236
v 17.4326 50 -35.4665
vt 0.686321 1.39632
v 18.5 50 -35.5
vt 0.728346 1.39764
v 19.5674 50 -35.4665
vt 0.770372 1.39632
v 20.6307 50 -35.3659
vt 0.812231 1.39236
v 21.6855 50 -35.1989
vt 0.853759 1.38578
v 22.7277 50 -34.9659
vt 0.894792 1.37661
v 23.7533 50 -34.668
vt 0.935169 1.36488
v 24.7581 50 -34.3062
vt 0.974729 1.35064
v 25.7382 50 -33.8821
vt 1.01332 1.33394
v 26.6898 50 -33.3972
vt 1.05078 1.31485
v 27.6091 50 -32.8536
vt 1.08697 1.29345
v 28.4923 50 -32.2533
vt 1.12175 1.26981
v 29.3362 50 -31.5987
vt 1.15497 1.24404
v 30.1373 50 -30.8925
vt 1.18651 1.21624
v 30.8925 50 -30.1373
vt 1.21624 1.18651
v 31.5987 50 -29.3362
vt 1.24404 1.15497
v 32.2533 50 -28.4923
vt 1.26981 1.12175
v 32.8536 50 -27.6091
vt 1.29345 1.08697
v 33.3972 50 -26.6898
vt 1.31485 1.05078
v 33.8821 50 -25.7382
vt 1.33394 1.01332
v 34.3062 50 -24.7581
vt 1.35064 0.974729
v 34.668 50 -23.7533
vt 1.36488 0.935169
v 34.9659 50 -22.7277
vt 1.37661 0.894792
v 35.1989 50 -21.6855
vt 1.38578 0.853759
v 35.3659 50 -20.6307
vt 1.39236 0.812231
v 35.4665 50 -19.5674
vt 1.39632 0.770372
v 35.5 50 -18.5
vt 1.39764 0.728346
v 35.4665 50 -17.4326
vt 1.39632 0.686321
v 35.3659 50 -16.3693
vt 1.39236 0.644462
v 35.1989 50 -15.3145
vt 1.38578 0.602934
v 34.9659 50 -14.2723
vt 1.37661 0.5619
v 34.668 50 -13.2467
vt 1.36488 0.521524
v 34.3062 50 -12.2419
vt 1.35064 0.481964
v 33.8821 50 -11.2618
vt 1.33394 0.443376
v 33.3972 50 -10.3102
vt 1.31485 0.405913
v 32.8536 50 -9.39094
vt 1.29345 0.369722
v 32.2533 50 -8.50765
vt 1.26981 0.334947
v 31.5987 50 -7.66379
vt 1.24404 0.301724
v 30.8925 50 -6.8627
vt 1.21624 0.270185
v 30.5149 50 -6.48512
vt 1.20137 0.25532
vt 1.24311 0.213582
vt 1.25929 0.229759
v 32.7545 50 -6.70766
vt 1.28955 0.264081
v 33.4668 50 -7.62597
vt 1.31759 0.300235
v 34.1201 50 -8.5872
vt 1.34331 0.338079
v 34.7117 50 -9.58756
vt 1.3666 0.377463
v 35.2393 50 -10.6231
vt 1.38737 0.418232
v 35.7009 50 -11.6897
vt 1.40555 0.460224
v 36.0945 50 -12.7832
vt 1.42105 0.503275
v 36.4188 50 -13.8992
vt 1.43381 0.547214
v 36.6723 50 -15.0334
vt 1.44379 0.591868
v 36.8541 50 -16.1813
vt 1.45095 0.63706
v 36.9635 50 -17.3384
vt 1.45526 0.682613
v 37 50 -18.5
vt 1.45669 0.728346
v 36.9635 50 -19.6616
vt 1.45526 0.77408
v 36.8541 50 -20.8187
vt 1.45095 0.819632
v 36.6723 50 -21.9666
vt 1.44379 0.864825
v 36.4188 50 -23.1008
vt 1.43381 0.909479
v 36.0945 50 -24.2168
vt 1.42105 0.953418
v 35.7009 50 -25.3103
vt 1.40555 0.996469
v 35.2393 50 -26.3769
vt 1.38737 1.03846
v 34.7117 50 -27.4124
vt 1.3666 1.07923
v 34.1201 50 -28.4128
vt 1.34331 1.11861
v 33.4668 50 -29.374
vt 1.31759 1.15646
v 32.7545 50 -30.2923
vt 1.28955 1.19261
v 31.9859 50 -31.1641
vt 1.25929 1.22693
v 31.1641 50 -31.9859
vt 1.22693 1.25929
v 30.2923 50 -32.7545
vt 1.19261 1.28955
v 29.374 50 -33.4668
vt 1.15646 1.31759
v 28.4128 50 -34.1201
vt 1.11861 1.34331
v 27.4124 50 -34.7117
vt 1.07923 1.3666
v 26.3769 50 -35.2393
vt 1.03846 1.38737
v 25.3103 50 -35.7009
vt 0.996469 1.40555
v 24.2168 50 -36.0945
vt 0.953418 1.42105
v 23.1008 50 -36.4188
vt 0.909479 1.43381
v 21.9666 50 -36.6723
vt 0.864825 1.44379
v 20.8187 50 -36.8541
vt 0.819632 1.45095
v 19.6616 50 -36.9635
vt 0.77408 1.45526
v 18.5 50 -37
vt 0.728346 1.45669
v 17.3384 50 -36.9635
vt 0.682613 1.45526
v 16.1813 50 -36.8541
vt 0.63706 1.45095
v 15.0334 50 -36.6723
vt 0.591868 1.44379
v 13.8992 50 -36.4188
vt 0.547214 1.43381
v 12.7832 50 -36.0945
vt 0.503275 1.42105
v 11.6897 50 -35.7009
vt 0.460224 1.40555
v 10.6231 50 -35.2393
vt 0.418232 1.38737
v 9.58756 50 -34.7117
vt 0.377463 1.3666
v 8.5872 50 -34.1201
vt 0.338079 1.34331
v 7.62597 50 -33.4668
vt 0.300235 1.31759
v 6.70766 50 -32.7545
vt 0.264081 1.28955
v 5.83588 50 -31.9859
vt 0.229759 1.25929
v 5.01408 50 -31.1641
vt 0.197405 1.22693
v 4.24551 50 -30.2923
vt 0.167146 1.19261
v 3.53319 50 -29.374
vt 0.139102 1.15646
v 2.87993 50 -28.4128
vt 0.113383 1.11861
v 2.28833 50 -27.4124
vt 0.0900916 1.07923
v 1.7607 50 -26.3769
vt 0.0693189 1.03846
v 1.29914 50 -25.3103
vt 0.051147 0.996469
v 0.905454 50 -24.2168
vt 0.0356478 0.953418
v 0.581212 50 -23.1008
vt 0.0228823 0.909479
v 0.327686 50 -21.9666
vt 0.012901 0.864825
v 0.145878 50 -20.8187
vt 0.00574323 0.819632
v 0.0365055 50 -19.6616
vt 0.00143723 0.77408
v 5.63993e-15 50 -18.5
vt 2.22045e-16 0.728346
v 0.0365055 50 -17.3384
vt 0.00143723 0.682613
v 0.145878 50 -16.1813
vt 0.00574323 0.63706
v 0.327686 50 -15.0334
vt 0.012901 0.591868
v 0.581212 50 -13.8992
vt 0.0228823 0.547214
v 0.905454 50 -12.7832
vt 0.0356478 0.503275
v 1.29914 50 -11.6897
vt 0.051147 0.460224
v 1.7607 50 -10.6231
vt 0.0693189 0.418232
v 2.28833 50 -9.58756
vt 0.0900916 0.377463
v 2.87993 50 -8.5872
vt 0.113383 0.338079
v 3.53319 50 -7.62597
vt 0.139102 0.300235
v 4.24551 50 -6.70766
vt 0.167146 0.264081
f 159/163/6 160/164/6 161/165/6 162/166/6 163/167/6 164/168/6 165/169/6 166/170/6 4/171/6 3/172/6 167/173/6 168/174/6 169/175/6 170/176/6 171/177/6 172/178/6 173/179/6 174/180/6 175/181/6 176/182/6 177/183/6 178/184/6 179/185/6 180/186/6 181/187/6 182/188/6 183/189/6 184/190/6 185/191/6 186/192/6 187/193/6 188/194/6 189/195/6 190/196/6 191/197/6 192/198/6 193/199/6 194/200/6 195/201/6 196/202/6 197/203/6 198/204/6 199/205/6 200/206/6 201/207/6 202/208/6 203/209/6 204/210/6 205/211/6 206/212/6 207/213/6 208/214/6 209/215/6 210/216/6 211/217/6 212/218/6 213/219/6 214/220/6 215/221/6 216/222/6 217/223/6 218/224/6 219/225/6 220/226/6 221/227/6 222/228/6 223/229/6 224/230/6 225/231/6 226/232/6 227/233/6 228/234/6 229/235/6 230/236/6 231/237/6 232/238/6 233/239/6 234/240/6 235/241/6 158/242/6 157/243/6 236/244/6 237/245/6 238/246/6 239/247/6 240/248/6 241/249/6 242/250/6 243/251/6 244/252/6 245/253/6 246/254/6 247/255/6 248/256/6 249/257/6 250/258/6 251/259/6 252/260/6 253/261/6 254/262/6 255/263/6 256/264/6 257/265/6 258/266/6 259/267/6 260/268/6 261/269/6 262/270/6 263/271/6 264/272/6 265/273/6 266/274/6 267/275/6 268/276/6 269/277/6 270/278/6 271/279/6 272/280/6 273/281/6 274/282/6 275/283/6 276/284/6 277/285/6 278/286/6 279/287/6 280/288/6 281/289/6 282/290/6 283/291/6 284/292/6 285/293/6 286/294/6 287/295/6 288/296/6 289/297/6 290/298/6 291/299/6 292/300/6 293/301/6 294/302/6 295/303/6 296/304/6 297/305/6 298/306/6 299/307/6 300/308/6 301/309/6 302/310/6 303/311/6 304/312/6 305/313/6 306/314/6 307/315/6 308/316/6 

vt 1.52656e-15 0
vn -0.707107 0 0.707107
vt 1.52656e-15 1.9685
vt -0.0228779 1.9685
vn -0.728969 0 0.684547
vt -0.0228779 0
f 82/317/7 160/318/7 159/319/8 83/320/8 

vt 0.30205 0
vt 0.361076 0
vt 0.361076 1.9685
vt 0.30205 1.9685
f 82/321/5 81/322/5 161/323/5 160/324/5 

vt 0.0210229 1.9685
vn 0.728969 0 -0.684547
vt -2.05391e-15 1.9685
vn 0.707107 0 -0.707107
vt -2.05391e-15 0
vt 0.0210229 0
f 162/325/9 161/326/10 81/327/10 80/328/9 

vt 0.0436536 0
vt 0.0856995 0
vn 0.770513 0 -0.637424
vt 0.0856995 1.9685
vt 0.0436536 1.9685
f 80/329/9 79/330/11 163/331/11 162/332/9 

vt 0.108075 0
vt 0.150121 0
vn 0.809017 0 -0.587785
vt 0.150121 1.9685
vt 0.108075 1.9685
f 79/333/11 78/334/12 164/335/12 163/336/11 

vt 0.171987 0
vt 0.214033 0
vn 0.844328 0 -0.535827
vt 0.214033 1.9685
vt 0.171987 1.9685
f 78/337/12 77/338/13 165/339/13 164/340/12 

vt 0.235137 0
vt 0.277183 0
vn 0.876307 0 -0.481754
vt 0.277183 1.9685
vt 0.235137 1.9685
f 77/341/13 76/342/14 166/343/14 165/344/13 

vt 0.297276 0
vt 0.339322 0
vt 0.339322 1.9685
vt 0.297276 1.9685
f 76/345/14 1/346/1 4/347/1 166/348/14 

vt -0.0875545 0
vn -0.770513 0 0.637424
vt -0.0417987 0
vt -0.0417987 1.9685
vt -0.0875545 1.9685
f 84/349/15 83/350/8 159/351/8 308/352/15 

vt -0.151976 0
vn -0.809017 0 0.587785
vt -0.10622 0
vt -0.10622 1.9685
vt -0.151976 1.9685
f 85/353/16 84/354/15 308/355/15 307/356/16 

vt -0.215888 0
vn -0.844328 0 0.535827
vt -0.170132 0
vt -0.170132 1.9685
vt -0.215888 1.9685
f 86/357/17 85/358/16 307/359/16 306/360/17 

vt -0.279038 0
vn -0.876307 0 0.481754
vt -0.233282 0
vt -0.233282 1.9685
vt -0.279038 1.9685
f 87/361/18 86/362/17 306/363/17 305/364/18 

vt -0.341177 0
vn -0.904827 0 0.425779
vt -0.295421 0
vt -0.295421 1.9685
vt -0.341177 1.9685
f 88/365/19 87/366/18 305/367/18 304/368/19 

vt -0.40206 0
vn -0.929776 0 0.368125
vt -0.356304 0
vt -0.356304 1.9685
vt -0.40206 1.9685
f 89/369/20 88/370/19 304/371/19 303/372/20 

vt -0.461447 0
vn -0.951057 0 0.309017
vt -0.415691 0
vt -0.415691 1.9685
vt -0.461447 1.9685
f 90/373/21 89/374/20 303/375/20 302/376/21 

vt -0.519102 0
vn -0.968583 0 0.24869
vt -0.473346 0
vt -0.473346 1.9685
vt -0.519102 1.9685
f 91/377/22 90/378/21 302/379/21 301/380/22 

vt -0.5748 0
vn -0.982287 0 0.187381
vt -0.529044 0
vt -0.529044 1.9685
vt -0.5748 1.9685
f 92/381/23 91/382/22 301/383/22 300/384/23 

vt -0.628319 0
vn -0.992115 0 0.125333
vt -0.582563 0
vt -0.582563 1.9685
vt -0.628319 1.9685
f 93/385/24 92/386/23 300/387/23 299/388/24 

vt -0.679448 0
vn -0.998027 0 0.0627905
vt -0.633693 0
vt -0.633693 1.9685
vt -0.679448 1.9685
f 94/389/25 93/390/24 299/391/24 298/392/25 

vt -0.727987 0
vn -1 0 1.24962e-15
vt -0.682231 0
vt -0.682231 1.9685
vt -0.727987 1.9685
f 95/393/26 94/394/25 298/395/25 297/396/26 

vt -0.773743 0
vn -0.998027 0 -0.0627905
vt -0.773743 1.9685
f 96/397/27 95/393/26 297/396/26 296/398/27 

vt -0.816535 0
vn -0.992115 0 -0.125333
vt -0.77078 0
vt -0.77078 1.9685
vt -0.816535 1.9685
f 97/399/28 96/400/27 296/401/27 295/402/28 

vt -0.856196 0
vn -0.982287 0 -0.187381
vt -0.81044 0
vt -0.81044 1.9685
vt -0.856196 1.9685
f 98/403/29 97/404/28 295/405/28 294/406/29 

vt -0.892567 0
vn -0.968583 0 -0.24869
vt -0.846811 0
vt -0.846811 1.9685
vt -0.892567 1.9685
f 99/407/30 98/408/29 294/409/29 293/410/30 

vt -0.925507 0
vn -0.951057 0 -0.309017
vt -0.879751 0
vt -0.879751 1.9685
vt -0.925507 1.9685
f 100/411/31 99/412/30 293/413/30 292/414/31 

vt -0.954884 0
vn -0.929776 0 -0.368125
vt -0.909128 0
vt -0.909128 1.9685
vt -0.954884 1.9685
f 101/415/32 100/416/31 292/417/31 291/418/32 

vt -0.980583 0
vn -0.904827 0 -0.425779
vt -0.934827 0
vt -0.934827 1.9685
vt -0.980583 1.9685
f 102/419/33 101/420/32 291/421/32 290/422/33 

vt -1.0025 0
vn -0.876307 0 -0.481754
vt -0.956746 0
vt -0.956746 1.9685
vt -1.0025 1.9685
f 103/423/34 102/424/33 290/425/33 289/426/34 

vt -1.02055 0
vn -0.844328 0 -0.535827
vt -0.974799 0
vt -0.974799 1.9685
vt -1.02055 1.9685
f 104/427/35 103/428/34 289/429/34 288/430/35 

vt -1.03467 0
vn -0.809017 0 -0.587785
vt -0.988915 0
vt -0.988915 1.9685
vt -1.03467 1.9685
f 105/431/36 104/432/35 288/433/35 287/434/36 

vt -1.04479 0
vn -0.770513 0 -0.637424
vt -0.999037 0
vt -0.999037 1.9685
vt -1.04479 1.9685
f 106/435/37 105/436/36 287/437/36 286/438/37 

vt -1.05088 0
vn -0.728969 0 -0.684547
vt -1.00513 0
vt -1.00513 1.9685
vt -1.05088 1.9685
f 107/439/38 106/440/37 286/441/37 285/442/38 

vt -1.05292 0
vn -0.684547 0 -0.728969
vt -1.00716 0
vt -1.00716 1.9685
vt -1.05292 1.9685
f 108/443/39 107/444/38 285/445/38 284/446/39 

vn -0.637424 0 -0.770513
f 109/439/40 108/440/39 284/441/39 283/442/40 

vn -0.587785 0 -0.809017
f 110/435/41 109/436/40 283/437/40 282/438/41 

vn -0.535827 0 -0.844328
f 111/431/42 110/432/41 282/433/41 281/434/42 

vn -0.481754 0 -0.876307
f 112/427/43 111/428/42 281/429/42 280/430/43 

vn -0.425779 0 -0.904827
f 113/423/44 112/424/43 280/425/43 279/426/44 

vn -0.368125 0 -0.929776
f 114/419/45 113/420/44 279/421/44 278/422/45 

vn -0.309017 0 -0.951057
f 115/415/46 114/416/45 278/417/45 277/418/46 

vn -0.24869 0 -0.968583
f 116/411/47 115/412/46 277/413/46 276/414/47 

vn -0.187381 0 -0.982287
f 117/407/48 116/408/47 276/409/47 275/410/48 

vn -0.125333 0 -0.992115
f 118/403/49 117/404/48 275/405/48 274/406/49 

vn -0.0627905 -8.48224e-16 -0.998027
vn -0.0627905 8.48137e-16 -0.998027
v 17.3384 40 -36.9635
vt -0.816535 1.5748
v 16.5 40 -36.8842
vt -0.783381 1.5748
vn -0.0941083 0 -0.995562
v 16.5 10 -36.8842
vt -0.783381 0.393701
v 17.3384 10 -36.9635
vt -0.816535 0.393701
f 119/399/50 118/400/49 274/401/49 273/402/51 309/447/51 310/448/52 311/449/52 312/450/50 

vn 1.23226e-15 1.55313e-15 -1
v 18.5 40 -37
vt -0.773743 1.5748
vt -0.727987 1.5748
f 272/398/53 313/451/53 309/452/51 273/396/51 

vn 0.0627905 7.04992e-16 -0.998027
v 19.6616 40 -36.9635
vt -0.682231 1.5748
f 271/396/54 314/452/54 313/453/53 272/395/53 

vt -0.679448 -2.17794e-32
vn 0.125333 7.16007e-33 -0.992115
vt -0.633693 -2.17794e-32
vn 0.0627905 -7.04992e-16 -0.998027
v 19.6616 10 -36.9635
vt -0.633693 0.393701
v 20.5 10 -36.8842
vt -0.666847 0.393701
vn 0.0941083 1.43131e-32 -0.995562
v 20.5 40 -36.8842
vt -0.666847 1.5748
vt -0.633693 1.5748
f 122/454/55 121/455/56 315/456/56 316/457/57 317/458/57 314/459/54 271/391/54 270/392/55 

vt -0.682231 2.08413e-15
vn 1.22879e-15 -1.55322e-15 -1
v 18.5 10 -37
vt -0.682231 0.393701
vt -0.727987 0.393701
vt -0.727987 2.08413e-15
f 120/460/58 318/461/58 315/462/56 121/463/56 

vt -0.727987 2.42997e-15
vt -0.773743 0.393701
vt -0.773743 2.42997e-15
f 119/464/50 312/462/50 318/465/58 120/466/58 

v 20.5 10 -56.8842
vt -0.807087 2.23954
vt -0.807087 1.45214
vt -0.649606 1.45214
v 16.5 10 -56.8842
vt -0.649606 2.23954
f 319/467/3 316/468/3 315/123/3 318/122/3 312/121/3 311/469/3 320/470/3 

vt 1.45214 0.393701
vn 1 0 -0
vt 2.23954 0.393701
v 20.5 40 -56.8842
vt 2.23954 1.5748
vt 1.45214 1.5748
f 316/471/59 319/472/59 321/473/59 317/474/59 

vt -0.807087 0.393701
vn 0 0 -1
vt -0.649606 0.393701
v 16.5 40 -56.8842
vt -0.649606 1.5748
vt -0.807087 1.5748
f 319/475/60 320/476/60 322/477/60 321/478/60 

vt -2.23954 0.393701
vn -1 0 -0
vt -1.45214 0.393701
vt -1.45214 1.5748
vt -2.23954 1.5748
f 320/479/61 311/480/61 310/481/61 322/482/61 

f 312/450/25 311/449/52 310/448/52 309/447/25 

vt 0.807087 1.45214
vn 0 1 -0
vt 0.807087 2.23954
vt 0.649606 2.23954
vt 0.649606 1.45214
f 317/483/62 321/484/62 322/485/62 310/486/62 309/281/62 313/280/62 314/279/62 

vt 0.727987 0.393701
vt 0.773743 0.393701
vn -2.46799e-15 0 1
vt 0.773743 1.5748
vt 0.727987 1.5748
f 312/487/25 318/488/63 313/489/63 309/490/25 

vt 0.682231 0.393701
vn 0.998027 0 0.0627905
vt 0.682231 1.5748
f 318/491/63 315/487/64 314/490/64 313/492/63 

vn 0.0941083 0 -0.995562
f 316/457/65 315/456/64 314/459/64 317/458/65 

vn 0.187381 0 -0.982287
f 123/385/66 122/386/55 270/387/55 269/388/66 

vn 0.24869 0 -0.968583
f 124/381/67 123/382/66 269/383/66 268/384/67 

vn 0.309017 0 -0.951057
f 125/377/68 124/378/67 268/379/67 267/380/68 

vn 0.368125 0 -0.929776
f 126/373/69 125/374/68 267/375/68 266/376/69 

vn 0.425779 0 -0.904827
f 127/369/70 126/370/69 266/371/69 265/372/70 

vn 0.481754 0 -0.876307
f 128/365/71 127/366/70 265/367/70 264/368/71 

vn 0.535827 0 -0.844328
f 129/361/72 128/362/71 264/363/71 263/364/72 

vn 0.587785 0 -0.809017
f 130/357/73 129/358/72 263/359/72 262/360/73 

vn 0.637424 0 -0.770513
f 131/353/74 130/354/73 262/355/73 261/356/74 

vn 0.684547 0 -0.728969
f 132/349/75 131/350/74 261/351/74 260/352/75 

vt 0.0228779 0
vt 0.0228779 1.9685
f 133/320/9 132/493/75 260/494/75 259/319/9 

vt 0.0417987 0
vt 0.0875545 0
vt 0.0875545 1.9685
vt 0.0417987 1.9685
f 134/495/11 133/496/9 259/497/9 258/498/11 

vt 0.10622 0
vt 0.151976 0
vt 0.151976 1.9685
vt 0.10622 1.9685
f 135/499/12 134/500/11 258/501/11 257/502/12 

vt 0.170132 0
vt 0.215888 0
vt 0.215888 1.9685
vt 0.170132 1.9685
f 136/503/13 135/504/12 257/505/12 256/506/13 

vt 0.233282 0
vt 0.279038 0
vt 0.279038 1.9685
vt 0.233282 1.9685
f 137/507/14 136/508/13 256/509/13 255/510/14 

vt 0.295421 0
vt 0.341177 0
vt 0.341177 1.9685
vt 0.295421 1.9685
f 138/511/1 137/512/14 255/513/14 254/514/1 

vt 0.356304 0
vt 0.40206 0
vt 0.40206 1.9685
vt 0.356304 1.9685
f 139/515/2 138/516/1 254/517/1 253/518/2 

vt 0.415691 0
vn 0.951057 0 -0.309017
vt 0.461447 0
vt 0.461447 1.9685
vt 0.415691 1.9685
f 140/519/76 139/520/2 253/521/2 252/522/76 

vt 0.473346 0
vn 0.968583 0 -0.24869
vt 0.519102 0
vt 0.519102 1.9685
vt 0.473346 1.9685
f 141/523/77 140/524/76 252/525/76 251/526/77 

vt 0.529044 0
vn 0.982287 0 -0.187381
vt 0.5748 0
vt 0.5748 1.9685
vt 0.529044 1.9685
f 142/527/78 141/528/77 251/529/77 250/530/78 

vt 0.582563 0
vn 0.992115 0 -0.125333
vt 0.628319 0
vt 0.628319 1.9685
vt 0.582563 1.9685
f 143/531/79 142/532/78 250/533/78 249/534/79 

vt 0.633693 0
vn 0.998027 0 -0.0627905
vt 0.679448 0
vt 0.679448 1.9685
vt 0.633693 1.9685
f 144/535/80 143/536/79 249/537/79 248/538/80 

vt 0.682231 0
vn 1 0 2.67974e-15
vt 0.727987 0
vt 0.727987 1.9685
vt 0.682231 1.9685
f 145/539/81 144/540/80 248/541/80 247/542/81 

vt 0.773743 0
vt 0.773743 1.9685
f 146/540/64 145/543/81 247/544/81 246/541/64 

vt 0.77078 0
vn 0.992115 0 0.125333
vt 0.816535 0
vt 0.816535 1.9685
vt 0.77078 1.9685
f 147/545/82 146/546/64 246/547/64 245/548/82 

vt 0.81044 0
vn 0.982287 0 0.187381
vt 0.856196 0
vt 0.856196 1.9685
vt 0.81044 1.9685
f 148/549/83 147/550/82 245/551/82 244/552/83 

vt 0.846811 0
vn 0.968583 0 0.24869
vt 0.892567 0
vt 0.892567 1.9685
vt 0.846811 1.9685
f 149/553/84 148/554/83 244/555/83 243/556/84 

vt 0.879751 0
vn 0.951057 0 0.309017
vt 0.925507 0
vt 0.925507 1.9685
vt 0.879751 1.9685
f 150/557/85 149/558/84 243/559/84 242/560/85 

vt 0.909128 0
vn 0.929776 0 0.368125
vt 0.954884 0
vt 0.954884 1.9685
vt 0.909128 1.9685
f 151/561/86 150/562/85 242/563/85 241/564/86 

vt 0.934827 0
vn 0.904827 0 0.425779
vt 0.980583 0
vt 0.980583 1.9685
vt 0.934827 1.9685
f 152/565/87 151/566/86 241/567/86 240/568/87 

vt 0.956746 0
vn 0.876307 0 0.481754
vt 1.0025 0
vt 1.0025 1.9685
vt 0.956746 1.9685
f 153/569/88 152/570/87 240/571/87 239/572/88 

vt 0.974799 0
vn 0.844328 0 0.535827
vt 1.02055 0
vt 1.02055 1.9685
vt 0.974799 1.9685
f 154/573/89 153/574/88 239/575/88 238/576/89 

vt 0.988915 0
vn 0.809017 0 0.587785
vt 1.03467 0
vt 1.03467 1.9685
vt 0.988915 1.9685
f 155/577/90 154/578/89 238/579/89 237/580/90 

vt 0.999037 0
vn 0.770513 0 0.637424
vt 1.04479 0
vt 1.04479 1.9685
vt 0.999037 1.9685
f 156/581/91 155/582/90 237/583/90 236/584/91 

vt 1.00513 0
vt 1.05088 0
vt 1.05088 1.9685
vt 1.00513 1.9685
f 5/585/4 156/586/91 236/587/91 157/588/4 

vt 0.417546 0
vt 0.459592 0
vt 0.459592 1.9685
vt 0.417546 1.9685
f 2/589/2 75/590/76 167/591/76 3/592/2 

vt 0.475201 0
vt 0.517247 0
vt 0.517247 1.9685
vt 0.475201 1.9685
f 75/593/76 74/594/77 168/595/77 167/596/76 

vt 0.530899 0
vt 0.572945 0
vt 0.572945 1.9685
vt 0.530899 1.9685
f 74/597/77 73/598/78 169/599/78 168/600/77 

vt 0.584418 0
vt 0.626464 0
vt 0.626464 1.9685
vt 0.584418 1.9685
f 73/601/78 72/602/79 170/603/79 169/604/78 

vt 0.635548 0
vt 0.677594 0
vt 0.677594 1.9685
vt 0.635548 1.9685
f 72/605/79 71/606/80 171/607/80 170/608/79 

vt 0.684086 0
vt 0.726132 0
vn 1 0 -1.31904e-15
vt 0.726132 1.9685
vt 0.684086 1.9685
f 71/609/80 70/610/92 172/611/92 171/612/80 

vt 0.729842 0
vt 0.771888 0
vt 0.771888 1.9685
vt 0.729842 1.9685
f 70/613/92 69/614/64 173/615/64 172/616/92 

vt 0.772635 0
vt 0.81468 0
vt 0.81468 1.9685
vt 0.772635 1.9685
f 69/617/64 68/618/82 174/619/82 173/620/64 

vt 0.812295 0
vt 0.854341 0
vt 0.854341 1.9685
vt 0.812295 1.9685
f 68/621/82 67/622/83 175/623/83 174/624/82 

vt 0.848666 0
vt 0.890712 0
vt 0.890712 1.9685
vt 0.848666 1.9685
f 67/625/83 66/626/84 176/627/84 175/628/83 

vt 0.881606 0
vt 0.923652 0
vt 0.923652 1.9685
vt 0.881606 1.9685
f 66/629/84 65/630/85 177/631/85 176/632/84 

vt 0.910983 0
vt 0.953029 0
vt 0.953029 1.9685
vt 0.910983 1.9685
f 65/633/85 64/634/86 178/635/86 177/636/85 

vt 0.936682 0
vt 0.978728 0
vt 0.978728 1.9685
vt 0.936682 1.9685
f 64/637/86 63/638/87 179/639/87 178/640/86 

vt 0.958601 0
vt 1.00065 0
vt 1.00065 1.9685
vt 0.958601 1.9685
f 63/641/87 62/642/88 180/643/88 179/644/87 

vt 0.976654 0
vt 1.0187 0
vt 1.0187 1.9685
vt 0.976654 1.9685
f 62/645/88 61/646/89 181/647/89 180/648/88 

vt 0.99077 0
vt 1.03282 0
vt 1.03282 1.9685
vt 0.99077 1.9685
f 61/649/89 60/650/90 182/651/90 181/652/89 

vt 1.00089 0
vt 1.04294 0
vt 1.04294 1.9685
vt 1.00089 1.9685
f 60/653/90 59/654/91 183/655/91 182/656/90 

vt 1.00698 0
vt 1.04903 0
vt 1.04903 1.9685
vt 1.00698 1.9685
f 59/657/91 58/658/4 184/659/4 183/660/91 

vt 1.00901 0
vt 1.05106 0
vn 0.684547 0 0.728969
vt 1.05106 1.9685
vt 1.00901 1.9685
f 58/661/4 57/662/93 185/663/93 184/664/4 

vn 0.637424 0 0.770513
f 57/657/93 56/658/94 186/659/94 185/660/93 

vn 0.587785 0 0.809017
f 56/653/94 55/654/95 187/655/95 186/656/94 

vn 0.535827 0 0.844328
f 55/649/95 54/650/96 188/651/96 187/652/95 

vn 0.481754 0 0.876307
f 54/645/96 53/646/97 189/647/97 188/648/96 

vn 0.425779 0 0.904827
f 53/641/97 52/642/98 190/643/98 189/644/97 

vn 0.368125 0 0.929776
f 52/637/98 51/638/99 191/639/99 190/640/98 

vn 0.309017 0 0.951057
f 51/633/99 50/634/100 192/635/100 191/636/99 

vn 0.24869 0 0.968583
f 50/629/100 49/630/101 193/631/101 192/632/100 

vn 0.187381 0 0.982287
f 49/625/101 48/626/102 194/627/102 193/628/101 

vn 0.125333 0 0.992115
f 48/621/102 47/622/103 195/623/103 194/624/102 

vn 0.0627905 0 0.998027
f 47/617/103 46/618/104 196/619/104 195/620/103 

vn 0 0 1
f 46/613/104 45/614/105 197/615/105 196/616/104 

vn -0.0627905 0 0.998027
f 45/609/105 44/610/106 198/611/106 197/612/105 

vn -0.125333 0 0.992115
f 44/605/106 43/606/107 199/607/107 198/608/106 

vn -0.187381 0 0.982287
f 43/601/107 42/602/108 200/603/108 199/604/107 

vn -0.24869 0 0.968583
f 42/597/108 41/598/109 201/599/109 200/600/108 

vn -0.309017 0 0.951057
f 41/593/109 40/594/110 202/595/110 201/596/109 

vn -0.368125 0 0.929776
f 40/589/110 39/590/111 203/591/111 202/592/110 

vn -0.425779 0 0.904827
f 39/1/111 38/2/112 204/3/112 203/4/111 

vn -0.481754 0 0.876307
f 38/345/112 37/346/113 205/347/113 204/348/112 

vn -0.535827 0 0.844328
f 37/341/113 36/342/114 206/343/114 205/344/113 

vn -0.587785 0 0.809017
f 36/337/114 35/338/115 207/339/115 206/340/114 

vn -0.637424 0 0.770513
f 35/333/115 34/334/116 208/335/116 207/336/115 

vn -0.684547 0 0.728969
f 34/329/116 33/330/117 209/331/117 208/332/116 

vt -0.0210229 0
vt -0.0210229 1.9685
f 33/665/117 32/328/8 210/325/8 209/666/117 

vt -0.0856995 0
vt -0.0436536 0
vt -0.0436536 1.9685
vt -0.0856995 1.9685
f 32/667/8 31/668/15 211/669/15 210/670/8 

vt -0.150121 0
vt -0.108075 0
vt -0.108075 1.9685
vt -0.150121 1.9685
f 31/671/15 30/672/16 212/673/16 211/674/15 

vt -0.214033 0
vt -0.171987 0
vt -0.171987 1.9685
vt -0.214033 1.9685
f 30/675/16 29/676/17 213/677/17 212/678/16 

vt -0.277183 0
vt -0.235137 0
vt -0.235137 1.9685
vt -0.277183 1.9685
f 29/679/17 28/680/18 214/681/18 213/682/17 

vt -0.339322 0
vt -0.297276 0
vt -0.297276 1.9685
vt -0.339322 1.9685
f 28/683/18 27/684/19 215/685/19 214/686/18 

vt -0.400205 0
vt -0.358159 0
vt -0.358159 1.9685
vt -0.400205 1.9685
f 27/687/19 26/688/20 216/689/20 215/690/19 

vt -0.459592 0
vt -0.417546 0
vt -0.417546 1.9685
vt -0.459592 1.9685
f 26/691/20 25/692/21 217/693/21 216/694/20 

vt -0.517247 0
vt -0.475201 0
vt -0.475201 1.9685
vt -0.517247 1.9685
f 25/695/21 24/696/22 218/697/22 217/698/21 

vt -0.572945 0
vt -0.530899 0
vt -0.530899 1.9685
vt -0.572945 1.9685
f 24/699/22 23/700/23 219/701/23 218/702/22 

vt -0.626464 0
vt -0.584418 0
vt -0.584418 1.9685
vt -0.626464 1.9685
f 23/703/23 22/704/24 220/705/24 219/706/23 

vt -0.677594 0
vt -0.635548 0
vt -0.635548 1.9685
vt -0.677594 1.9685
f 22/707/24 21/708/25 221/709/25 220/710/24 

vt -0.726132 0
vt -0.684086 0
vn -1 0 -3.07892e-15
vt -0.684086 1.9685
vt -0.726132 1.9685
f 21/711/25 20/712/118 222/713/118 221/714/25 

vt -0.771888 0
vt -0.729842 0
vt -0.729842 1.9685
vt -0.771888 1.9685
f 20/715/118 19/716/27 223/717/27 222/718/118 

vt -0.81468 0
vt -0.772635 0
vt -0.772635 1.9685
vt -0.81468 1.9685
f 19/719/27 18/720/28 224/721/28 223/722/27 

vt -0.854341 0
vt -0.812295 0
vt -0.812295 1.9685
vt -0.854341 1.9685
f 18/723/28 17/724/29 225/725/29 224/726/28 

vt -0.890712 0
vt -0.848666 0
vt -0.848666 1.9685
vt -0.890712 1.9685
f 17/727/29 16/728/30 226/729/30 225/730/29 

vt -0.923652 0
vt -0.881606 0
vt -0.881606 1.9685
vt -0.923652 1.9685
f 16/731/30 15/732/31 227/733/31 226/734/30 

vt -0.953029 0
vt -0.910983 0
vt -0.910983 1.9685
vt -0.953029 1.9685
f 15/735/31 14/736/32 228/737/32 227/738/31 

vt -0.978728 0
vt -0.936682 0
vt -0.936682 1.9685
vt -0.978728 1.9685
f 14/739/32 13/740/33 229/741/33 228/742/32 

vt -1.00065 0
vt -0.958601 0
vt -0.958601 1.9685
vt -1.00065 1.9685
f 13/743/33 12/744/34 230/745/34 229/746/33 

vt -1.0187 0
vt -0.976654 0
vt -0.976654 1.9685
vt -1.0187 1.9685
f 12/747/34 11/748/35 231/749/35 230/750/34 

vt -1.03282 0
vt -0.99077 0
vt -0.99077 1.9685
vt -1.03282 1.9685
f 11/751/35 10/752/36 232/753/36 231/754/35 

vt -1.04294 0
vt -1.00089 0
vt -1.00089 1.9685
vt -1.04294 1.9685
f 10/755/36 9/756/37 233/757/37 232/758/36 

vt -1.04903 0
vt -1.00698 0
vt -1.00698 1.9685
vt -1.04903 1.9685
f 9/759/37 8/760/38 234/761/38 233/762/37 

vt -1.03004 0
vn -0.707107 0 -0.707107
vt -1.03004 1.9685
vt -1.05106 1.9685
vt -1.05106 0
f 7/763/119 235/764/119 234/765/38 8/766/38 

vt 0.668961 0
vt 0.668961 1.9685
f 7/767/7 6/540/7 158/541/7 235/768/7 

